<svg width="42" height="15" viewBox="0 0 42 15" fill="none" xmlns="http://www.w3.org/2000/svg">
          <path d="M13.7416 15H3.05369C2.85122 15 2.65704 14.9196 2.51387 14.7764C2.3707 14.6332 2.29027 14.4391 2.29027 14.2366V7.36577H0L7.88386 0.198763C8.02442 0.0708726 8.20762 0 8.39765 0C8.58768 0 8.77088 0.0708726 8.91143 0.198763L16.7953 7.36577H14.505V14.2366C14.505 14.4391 14.4246 14.6332 14.2814 14.7764C14.1383 14.9196 13.9441 15 13.7416 15ZM9.16107 13.4732H12.9782V5.95879L8.39765 1.79508L3.81711 5.95879V13.4732H7.63423V8.89262H9.16107V13.4732Z" fill="#EA279C"/>
          <path d="M23.56 13C23.4747 13 23.3947 12.968 23.32 12.904C23.256 12.84 23.224 12.76 23.224 12.664L23.256 12.52L27.112 2.2C27.1867 1.93333 27.3733 1.8 27.672 1.8H29.416C29.6933 1.8 29.88 1.93333 29.976 2.2L33.832 12.52C33.8427 12.552 33.848 12.6 33.848 12.664C33.848 12.76 33.816 12.84 33.752 12.904C33.688 12.968 33.6133 13 33.528 13H32.136C31.9973 13 31.8907 12.968 31.816 12.904C31.7413 12.84 31.6933 12.7707 31.672 12.696L30.92 10.744H26.168L25.416 12.696C25.3307 12.8987 25.176 13 24.952 13H23.56ZM30.36 8.904L28.536 3.96L26.728 8.904H30.36ZM35.5498 13C35.4431 13 35.3524 12.9627 35.2778 12.888C35.2031 12.8133 35.1658 12.7227 35.1658 12.616V2.024C35.1658 1.90667 35.2031 1.816 35.2778 1.752C35.3524 1.67733 35.4431 1.64 35.5498 1.64H36.8778C36.9951 1.64 37.0858 1.67733 37.1498 1.752C37.2244 1.816 37.2618 1.90667 37.2618 2.024V12.616C37.2618 12.7227 37.2244 12.8133 37.1498 12.888C37.0858 12.9627 36.9951 13 36.8778 13H35.5498ZM39.7841 13C39.6775 13 39.5868 12.9627 39.5121 12.888C39.4375 12.8133 39.4001 12.7227 39.4001 12.616V2.024C39.4001 1.90667 39.4375 1.816 39.5121 1.752C39.5868 1.67733 39.6775 1.64 39.7841 1.64H41.1121C41.2295 1.64 41.3201 1.67733 41.3841 1.752C41.4588 1.816 41.4961 1.90667 41.4961 2.024V12.616C41.4961 12.7227 41.4588 12.8133 41.3841 12.888C41.3201 12.9627 41.2295 13 41.1121 13H39.7841Z" fill="#EA279C"/>
        </svg>