<svg width="44" height="15" viewBox="0 0 44 15" fill="none" xmlns="http://www.w3.org/2000/svg">
<path d="M4.49108 11.2558H0V9.64785H14.4718V11.2558H9.9807L12.588 13.8632L11.4512 15L8.03988 11.5887V13.6678H6.4319V11.5887L3.02058 15L1.88374 13.8632L4.49108 11.2558ZM1.60798 0H12.8638C13.077 0 13.2815 0.0847056 13.4323 0.235483C13.5831 0.386259 13.6678 0.590757 13.6678 0.803988V8.84387H0.803988V0.803988C0.803988 0.590757 0.888694 0.386259 1.03947 0.235483C1.19025 0.0847056 1.39474 0 1.60798 0ZM2.41196 1.60798V7.23589H12.0598V1.60798H2.41196Z" fill="#555555"/>
<path d="M21.64 13C21.5547 13 21.48 12.968 21.416 12.904C21.352 12.84 21.32 12.7653 21.32 12.68C21.32 12.5947 21.3253 12.536 21.336 12.504L25.304 2.152C25.3893 1.91733 25.56 1.8 25.816 1.8H26.904C27.16 1.8 27.3307 1.91733 27.416 2.152L31.368 12.504L31.4 12.68C31.4 12.7653 31.368 12.84 31.304 12.904C31.24 12.968 31.1653 13 31.08 13H30.264C30.1467 13 30.056 12.9733 29.992 12.92C29.928 12.856 29.8853 12.792 29.864 12.728L28.984 10.456H23.736L22.856 12.728C22.8347 12.792 22.7867 12.856 22.712 12.92C22.648 12.9733 22.5627 13 22.456 13H21.64ZM28.52 9.08L26.36 3.4L24.2 9.08H28.52ZM33.2708 13C33.1641 13 33.0734 12.968 32.9988 12.904C32.9348 12.8293 32.9028 12.7387 32.9028 12.632V5.064C32.9028 4.95733 32.9348 4.86667 32.9988 4.792C33.0734 4.71733 33.1641 4.68 33.2708 4.68H34.0068C34.1134 4.68 34.2041 4.71733 34.2788 4.792C34.3534 4.86667 34.3908 4.95733 34.3908 5.064V5.768C34.8281 5.04267 35.5748 4.68 36.6308 4.68H37.2548C37.3614 4.68 37.4468 4.71733 37.5108 4.792C37.5854 4.856 37.6228 4.94133 37.6228 5.048V5.704C37.6228 5.81067 37.5854 5.896 37.5108 5.96C37.4468 6.024 37.3614 6.056 37.2548 6.056H36.2948C35.7188 6.056 35.2654 6.22667 34.9348 6.568C34.6041 6.89867 34.4388 7.352 34.4388 7.928V12.632C34.4388 12.7387 34.4014 12.8293 34.3268 12.904C34.2521 12.968 34.1614 13 34.0548 13H33.2708ZM42.2289 13C40.5435 13 39.7009 12.0613 39.7009 10.184V5.96H38.4529C38.3462 5.96 38.2555 5.928 38.1809 5.864C38.1169 5.78933 38.0849 5.69867 38.0849 5.592V5.048C38.0849 4.94133 38.1169 4.856 38.1809 4.792C38.2555 4.71733 38.3462 4.68 38.4529 4.68H39.7009V2.008C39.7009 1.90133 39.7329 1.816 39.7969 1.752C39.8715 1.67733 39.9622 1.64 40.0689 1.64H40.8209C40.9275 1.64 41.0129 1.67733 41.0769 1.752C41.1515 1.816 41.1889 1.90133 41.1889 2.008V4.68H43.1729C43.2795 4.68 43.3649 4.71733 43.4289 4.792C43.5035 4.856 43.5409 4.94133 43.5409 5.048V5.592C43.5409 5.69867 43.5035 5.78933 43.4289 5.864C43.3649 5.928 43.2795 5.96 43.1729 5.96H41.1889V10.072C41.1889 10.6053 41.2795 11.0107 41.4609 11.288C41.6422 11.5547 41.9409 11.688 42.3569 11.688H43.3329C43.4395 11.688 43.5249 11.7253 43.5889 11.8C43.6635 11.864 43.7009 11.9493 43.7009 12.056V12.632C43.7009 12.7387 43.6635 12.8293 43.5889 12.904C43.5249 12.968 43.4395 13 43.3329 13H42.2289Z" fill="#555555"/>
</svg>
