<svg width="54" height="15" viewBox="0 0 54 15" fill="none" xmlns="http://www.w3.org/2000/svg">
<path d="M7.5 15C3.35775 15 0 11.6423 0 7.5C0 3.35775 3.35775 0 7.5 0C11.6423 0 15 3.35775 15 7.5C15 11.6423 11.6423 15 7.5 15ZM7.5 13.5C9.0913 13.5 10.6174 12.8679 11.7426 11.7426C12.8679 10.6174 13.5 9.0913 13.5 7.5C13.5 5.9087 12.8679 4.38258 11.7426 3.25736C10.6174 2.13214 9.0913 1.5 7.5 1.5C5.9087 1.5 4.38258 2.13214 3.25736 3.25736C2.13214 4.38258 1.5 5.9087 1.5 7.5C1.5 9.0913 2.13214 10.6174 3.25736 11.7426C4.38258 12.8679 5.9087 13.5 7.5 13.5ZM3.75 8.25H10.5V9.75H7.5V12L3.75 8.25ZM7.5 5.25V3L11.25 6.75H4.5V5.25H7.5Z" fill="#555555"/>
<path d="M22.76 13C22.6533 13 22.5627 12.968 22.488 12.904C22.424 12.8293 22.392 12.7387 22.392 12.632V2.184C22.392 2.06667 22.424 1.976 22.488 1.912C22.5627 1.83733 22.6533 1.8 22.76 1.8H26.392C28.0027 1.8 29.1653 2.16267 29.88 2.888C30.5947 3.60267 30.968 4.68533 31 6.136C31.0107 6.44533 31.016 6.86133 31.016 7.384C31.016 7.90667 31.0107 8.328 31 8.648C30.968 9.66133 30.7973 10.488 30.488 11.128C30.1893 11.7573 29.7147 12.2267 29.064 12.536C28.4133 12.8453 27.5493 13 26.472 13H22.76ZM26.392 11.64C27.128 11.64 27.7093 11.5387 28.136 11.336C28.5733 11.1333 28.888 10.8133 29.08 10.376C29.2827 9.928 29.3947 9.33067 29.416 8.584C29.4373 7.944 29.448 7.544 29.448 7.384C29.448 7.21333 29.4373 6.81867 29.416 6.2C29.3947 5.144 29.144 4.376 28.664 3.896C28.184 3.40533 27.4 3.16 26.312 3.16H23.96V11.64H26.392ZM36.5433 13.16C35.4446 13.16 34.5646 12.824 33.9033 12.152C33.2526 11.4693 32.8953 10.5413 32.8313 9.368L32.8153 8.824L32.8313 8.296C32.9059 7.144 33.2686 6.22667 33.9193 5.544C34.5806 4.86133 35.4499 4.52 36.5273 4.52C37.7113 4.52 38.6286 4.89867 39.2793 5.656C39.9299 6.40267 40.2552 7.416 40.2552 8.696V8.968C40.2552 9.07467 40.2179 9.16533 40.1433 9.24C40.0793 9.304 39.9939 9.336 39.8873 9.336H34.3513V9.48C34.3833 10.1733 34.5913 10.7653 34.9753 11.256C35.3699 11.736 35.8873 11.976 36.5273 11.976C37.0179 11.976 37.4179 11.88 37.7273 11.688C38.0473 11.4853 38.2819 11.2773 38.4313 11.064C38.5273 10.936 38.5966 10.8613 38.6393 10.84C38.6926 10.808 38.7833 10.792 38.9113 10.792H39.6953C39.7913 10.792 39.8713 10.8187 39.9353 10.872C39.9993 10.9253 40.0312 11 40.0312 11.096C40.0312 11.3307 39.8819 11.6133 39.5833 11.944C39.2953 12.2747 38.8846 12.5627 38.3513 12.808C37.8286 13.0427 37.2259 13.16 36.5433 13.16ZM38.7353 8.232V8.184C38.7353 7.448 38.5326 6.85067 38.1273 6.392C37.7326 5.92267 37.1993 5.688 36.5273 5.688C35.8553 5.688 35.3219 5.92267 34.9273 6.392C34.5433 6.85067 34.3513 7.448 34.3513 8.184V8.232H38.7353ZM42.7444 13C42.6377 13 42.547 12.968 42.4724 12.904C42.4084 12.8293 42.3764 12.7387 42.3764 12.632V2.184C42.3764 2.06667 42.4084 1.976 42.4724 1.912C42.547 1.83733 42.6377 1.8 42.7444 1.8H49.2724C49.3897 1.8 49.4804 1.83733 49.5444 1.912C49.619 1.976 49.6564 2.06667 49.6564 2.184V2.824C49.6564 2.93067 49.619 3.02133 49.5444 3.096C49.4804 3.16 49.3897 3.192 49.2724 3.192H43.9284V6.92H48.9524C49.0697 6.92 49.1604 6.95733 49.2244 7.032C49.299 7.096 49.3364 7.18667 49.3364 7.304V7.944C49.3364 8.05067 49.299 8.14133 49.2244 8.216C49.1497 8.28 49.059 8.312 48.9524 8.312H43.9284V12.632C43.9284 12.7387 43.891 12.8293 43.8164 12.904C43.7417 12.968 43.651 13 43.5444 13H42.7444ZM51.7521 3.128C51.6455 3.128 51.5548 3.096 51.4801 3.032C51.4161 2.95733 51.3841 2.86667 51.3841 2.76V1.896C51.3841 1.78933 51.4161 1.69867 51.4801 1.624C51.5548 1.54933 51.6455 1.512 51.7521 1.512H52.7601C52.8668 1.512 52.9575 1.54933 53.0321 1.624C53.1068 1.69867 53.1441 1.78933 53.1441 1.896V2.76C53.1441 2.86667 53.1068 2.95733 53.0321 3.032C52.9575 3.096 52.8668 3.128 52.7601 3.128H51.7521ZM51.8801 13C51.7735 13 51.6828 12.968 51.6081 12.904C51.5441 12.8293 51.5121 12.7387 51.5121 12.632V5.048C51.5121 4.94133 51.5441 4.856 51.6081 4.792C51.6828 4.71733 51.7735 4.68 51.8801 4.68H52.6481C52.7548 4.68 52.8401 4.71733 52.9041 4.792C52.9788 4.856 53.0161 4.94133 53.0161 5.048V12.632C53.0161 12.7387 52.9788 12.8293 52.9041 12.904C52.8401 12.968 52.7548 13 52.6481 13H51.8801Z" fill="#555555"/>
</svg>
