<svg width="78" height="15" viewBox="0 0 78 15" fill="none" xmlns="http://www.w3.org/2000/svg">
<path d="M15 0C16.4918 0 17.9226 0.592632 18.9775 1.64752C20.0324 2.70242 20.625 4.13316 20.625 5.625V9.375C20.625 10.8668 20.0324 12.2976 18.9775 13.3525C17.9226 14.4074 16.4918 15 15 15H5.625C4.13316 15 2.70242 14.4074 1.64752 13.3525C0.592632 12.2976 0 10.8668 0 9.375V5.625C0 4.13316 0.592632 2.70242 1.64752 1.64752C2.70242 0.592632 4.13316 0 5.625 0H15ZM15 1.875H5.625C4.6629 1.875 3.7376 2.24478 3.04049 2.90787C2.34338 3.57095 1.92779 4.4766 1.87969 5.4375L1.875 5.625V9.375C1.875 10.3371 2.24478 11.2624 2.90787 11.9595C3.57095 12.6566 4.4766 13.0722 5.4375 13.1203L5.625 13.125H15C15.9621 13.125 16.8874 12.7552 17.5845 12.0921C18.2816 11.4291 18.6972 10.5234 18.7453 9.5625L18.75 9.375V5.625C18.75 4.6629 18.3802 3.7376 17.7171 3.04049C17.0541 2.34338 16.1484 1.92779 15.1875 1.87969L15 1.875ZM8.4375 4.6875V6.5625H10.3125V8.4375H8.43656L8.4375 10.3125H6.5625L6.56156 8.4375H4.6875V6.5625H6.5625V4.6875H8.4375ZM15.9375 8.4375V10.3125H14.0625V8.4375H15.9375ZM14.0625 4.6875V6.5625H12.1875V4.6875H14.0625Z" fill="#555555"/>
<path d="M32.472 13.16C31.0747 13.16 29.9867 12.7813 29.208 12.024C28.44 11.256 28.0293 10.2107 27.976 8.888C27.9653 8.568 27.96 8.06667 27.96 7.384C27.96 6.69067 27.9653 6.18933 27.976 5.88C28.0293 4.568 28.4453 3.53333 29.224 2.776C30.0027 2.01867 31.0853 1.64 32.472 1.64C33.4107 1.64 34.2053 1.81067 34.856 2.152C35.5173 2.48267 36.0133 2.888 36.344 3.368C36.6747 3.848 36.8507 4.296 36.872 4.712V4.744C36.872 4.82933 36.84 4.89867 36.776 4.952C36.712 5.00533 36.632 5.032 36.536 5.032H35.592C35.4853 5.032 35.4053 5.016 35.352 4.984C35.3093 4.94133 35.2667 4.86133 35.224 4.744C35.064 4.264 34.7547 3.85333 34.296 3.512C33.848 3.17067 33.24 3 32.472 3C31.5867 3 30.8933 3.24 30.392 3.72C29.8907 4.2 29.6187 4.94667 29.576 5.96C29.5653 6.26933 29.56 6.744 29.56 7.384C29.56 8.01333 29.5653 8.488 29.576 8.808C29.6187 9.832 29.8907 10.5893 30.392 11.08C30.8933 11.56 31.5867 11.8 32.472 11.8C33.368 11.8 34.0827 11.5547 34.616 11.064C35.1493 10.5733 35.416 9.83733 35.416 8.856V8.184H33.016C32.9093 8.184 32.8187 8.152 32.744 8.088C32.68 8.01333 32.648 7.91733 32.648 7.8V7.288C32.648 7.18133 32.68 7.09067 32.744 7.016C32.8187 6.94133 32.9093 6.904 33.016 6.904H36.632C36.7387 6.904 36.824 6.94133 36.888 7.016C36.9627 7.08 37 7.17067 37 7.288V8.824C37 9.69867 36.8187 10.4613 36.456 11.112C36.0933 11.7627 35.5707 12.2693 34.888 12.632C34.2053 12.984 33.4 13.16 32.472 13.16ZM41.3946 13.16C40.872 13.16 40.3866 13.0533 39.9386 12.84C39.4906 12.6267 39.1333 12.3387 38.8666 11.976C38.6106 11.6027 38.4826 11.192 38.4826 10.744C38.4826 10.04 38.7706 9.464 39.3466 9.016C39.9333 8.55733 40.7226 8.25867 41.7146 8.12L44.0986 7.784V7.32C44.0986 6.232 43.4746 5.688 42.2266 5.688C41.7573 5.688 41.3733 5.78933 41.0746 5.992C40.776 6.184 40.552 6.41333 40.4026 6.68C40.3706 6.776 40.328 6.84533 40.2746 6.888C40.232 6.93067 40.168 6.952 40.0826 6.952H39.3946C39.2986 6.952 39.2133 6.92 39.1386 6.856C39.0746 6.78133 39.0426 6.696 39.0426 6.6C39.0533 6.344 39.1706 6.056 39.3946 5.736C39.6293 5.40533 39.9866 5.12267 40.4666 4.888C40.9466 4.64267 41.5386 4.52 42.2426 4.52C43.4373 4.52 44.296 4.80267 44.8186 5.368C45.3413 5.92267 45.6026 6.616 45.6026 7.448V12.632C45.6026 12.7387 45.5653 12.8293 45.4906 12.904C45.4266 12.968 45.3413 13 45.2346 13H44.4986C44.392 13 44.3013 12.968 44.2266 12.904C44.1626 12.8293 44.1306 12.7387 44.1306 12.632V11.944C43.896 12.2853 43.5546 12.5733 43.1066 12.808C42.6586 13.0427 42.088 13.16 41.3946 13.16ZM41.7306 11.96C42.424 11.96 42.9893 11.736 43.4266 11.288C43.8746 10.8293 44.0986 10.1733 44.0986 9.32V8.872L42.2426 9.144C41.4853 9.25067 40.9146 9.432 40.5306 9.688C40.1466 9.93333 39.9546 10.248 39.9546 10.632C39.9546 11.0587 40.1306 11.3893 40.4826 11.624C40.8346 11.848 41.2506 11.96 41.7306 11.96ZM48.2708 13C48.1641 13 48.0734 12.968 47.9988 12.904C47.9348 12.8293 47.9028 12.7387 47.9028 12.632V5.048C47.9028 4.94133 47.9348 4.856 47.9988 4.792C48.0734 4.71733 48.1641 4.68 48.2708 4.68H48.9908C49.0974 4.68 49.1828 4.71733 49.2468 4.792C49.3214 4.856 49.3588 4.94133 49.3588 5.048V5.608C49.9134 4.88267 50.6868 4.52 51.6788 4.52C52.8628 4.52 53.7001 5.01067 54.1908 5.992C54.4468 5.544 54.8094 5.18667 55.2788 4.92C55.7481 4.65333 56.2761 4.52 56.8628 4.52C57.7374 4.52 58.4521 4.81867 59.0068 5.416C59.5614 6.01333 59.8388 6.87733 59.8388 8.008V12.632C59.8388 12.7387 59.8014 12.8293 59.7268 12.904C59.6628 12.968 59.5774 13 59.4708 13H58.7188C58.6121 13 58.5214 12.968 58.4468 12.904C58.3828 12.8293 58.3508 12.7387 58.3508 12.632V8.152C58.3508 7.32 58.1748 6.72267 57.8228 6.36C57.4814 5.99733 57.0281 5.816 56.4628 5.816C55.9614 5.816 55.5294 6.00267 55.1667 6.376C54.8041 6.73867 54.6228 7.33067 54.6228 8.152V12.632C54.6228 12.7387 54.5854 12.8293 54.5108 12.904C54.4468 12.968 54.3614 13 54.2548 13H53.5028C53.3961 13 53.3054 12.968 53.2308 12.904C53.1668 12.8293 53.1348 12.7387 53.1348 12.632V8.152C53.1348 7.32 52.9534 6.72267 52.5908 6.36C52.2388 5.99733 51.7908 5.816 51.2468 5.816C50.7454 5.816 50.3134 6.00267 49.9508 6.376C49.5881 6.73867 49.4068 7.32533 49.4068 8.136V12.632C49.4068 12.7387 49.3694 12.8293 49.2948 12.904C49.2308 12.968 49.1454 13 49.0388 13H48.2708ZM65.4495 13.16C64.3508 13.16 63.4708 12.824 62.8095 12.152C62.1588 11.4693 61.8015 10.5413 61.7375 9.368L61.7215 8.824L61.7375 8.296C61.8122 7.144 62.1748 6.22667 62.8255 5.544C63.4868 4.86133 64.3562 4.52 65.4335 4.52C66.6175 4.52 67.5348 4.89867 68.1855 5.656C68.8362 6.40267 69.1615 7.416 69.1615 8.696V8.968C69.1615 9.07467 69.1242 9.16533 69.0495 9.24C68.9855 9.304 68.9002 9.336 68.7935 9.336H63.2575V9.48C63.2895 10.1733 63.4975 10.7653 63.8815 11.256C64.2762 11.736 64.7935 11.976 65.4335 11.976C65.9242 11.976 66.3242 11.88 66.6335 11.688C66.9535 11.4853 67.1882 11.2773 67.3375 11.064C67.4335 10.936 67.5028 10.8613 67.5455 10.84C67.5988 10.808 67.6895 10.792 67.8175 10.792H68.6015C68.6975 10.792 68.7775 10.8187 68.8415 10.872C68.9055 10.9253 68.9375 11 68.9375 11.096C68.9375 11.3307 68.7882 11.6133 68.4895 11.944C68.2015 12.2747 67.7908 12.5627 67.2575 12.808C66.7348 13.0427 66.1322 13.16 65.4495 13.16ZM67.6415 8.232V8.184C67.6415 7.448 67.4388 6.85067 67.0335 6.392C66.6388 5.92267 66.1055 5.688 65.4335 5.688C64.7615 5.688 64.2282 5.92267 63.8335 6.392C63.4495 6.85067 63.2575 7.448 63.2575 8.184V8.232H67.6415ZM73.9546 13.16C73.208 13.16 72.5786 13.0427 72.0666 12.808C71.5653 12.5627 71.1866 12.2853 70.9306 11.976C70.6853 11.6667 70.5626 11.4107 70.5626 11.208C70.5626 11.1013 70.6 11.0213 70.6746 10.968C70.76 10.904 70.8453 10.872 70.9306 10.872H71.6506C71.7573 10.872 71.8533 10.9253 71.9386 11.032C72.1946 11.3307 72.472 11.5653 72.7706 11.736C73.0693 11.9067 73.4693 11.992 73.9706 11.992C74.5253 11.992 74.9733 11.8853 75.3146 11.672C75.6666 11.448 75.8426 11.144 75.8426 10.76C75.8426 10.504 75.768 10.296 75.6186 10.136C75.48 9.96533 75.2346 9.82133 74.8826 9.704C74.5413 9.576 74.0293 9.43733 73.3466 9.288C72.4186 9.08533 71.7573 8.792 71.3626 8.408C70.9786 8.024 70.7866 7.528 70.7866 6.92C70.7866 6.51467 70.904 6.13067 71.1386 5.768C71.384 5.39467 71.736 5.096 72.1946 4.872C72.664 4.63733 73.224 4.52 73.8746 4.52C74.5573 4.52 75.1386 4.632 75.6186 4.856C76.0986 5.08 76.456 5.34667 76.6906 5.656C76.936 5.95467 77.0586 6.20533 77.0586 6.408C77.0586 6.504 77.0213 6.584 76.9466 6.648C76.8826 6.712 76.8026 6.744 76.7066 6.744H76.0346C75.9066 6.744 75.8 6.69067 75.7146 6.584C75.544 6.38133 75.3946 6.22667 75.2666 6.12C75.1493 6.00267 74.9733 5.90133 74.7386 5.816C74.5146 5.73067 74.2266 5.688 73.8746 5.688C73.3626 5.688 72.968 5.8 72.6906 6.024C72.4133 6.23733 72.2746 6.52 72.2746 6.872C72.2746 7.096 72.3333 7.288 72.4506 7.448C72.568 7.59733 72.792 7.736 73.1226 7.864C73.464 7.992 73.9546 8.12533 74.5946 8.264C75.608 8.47733 76.3226 8.78667 76.7386 9.192C77.1653 9.58667 77.3786 10.0933 77.3786 10.712C77.3786 11.1707 77.2453 11.5867 76.9786 11.96C76.712 12.3333 76.3173 12.6267 75.7946 12.84C75.2826 13.0533 74.6693 13.16 73.9546 13.16Z" fill="#555555"/>
</svg>
