<svg width="74" height="15" viewBox="0 0 74 15" fill="none" xmlns="http://www.w3.org/2000/svg">
<path d="M1.66667 6.75L3.33333 5.08333L7.91667 9.66667L10.8333 6.75L13.3333 9.25V1.66667H1.66667V6.75ZM1.66667 9.1075V13.3333H4.25L6.73833 10.8458L3.33333 7.44083L1.66667 9.1075ZM6.6075 13.3333H13.3333V11.6075L10.8333 9.1075L6.6075 13.3333ZM0.833333 0H14.1667C14.3877 0 14.5996 0.0877973 14.7559 0.244078C14.9122 0.400358 15 0.61232 15 0.833333V14.1667C15 14.3877 14.9122 14.5996 14.7559 14.7559C14.5996 14.9122 14.3877 15 14.1667 15H0.833333C0.61232 15 0.400358 14.9122 0.244078 14.7559C0.0877973 14.5996 0 14.3877 0 14.1667V0.833333C0 0.61232 0.0877973 0.400358 0.244078 0.244078C0.400358 0.0877973 0.61232 0 0.833333 0ZM10.4167 5.83333C10.0851 5.83333 9.7672 5.70164 9.53278 5.46722C9.29836 5.2328 9.16667 4.91485 9.16667 4.58333C9.16667 4.25181 9.29836 3.93387 9.53278 3.69945C9.7672 3.46503 10.0851 3.33333 10.4167 3.33333C10.7482 3.33333 11.0661 3.46503 11.3005 3.69945C11.535 3.93387 11.6667 4.25181 11.6667 4.58333C11.6667 4.91485 11.535 5.2328 11.3005 5.46722C11.0661 5.70164 10.7482 5.83333 10.4167 5.83333Z" fill="#555555"/>
<path d="M22.76 13C22.6533 13 22.5627 12.968 22.488 12.904C22.424 12.8293 22.392 12.7387 22.392 12.632V2.184C22.392 2.06667 22.424 1.976 22.488 1.912C22.5627 1.83733 22.6533 1.8 22.76 1.8H23.56C23.7307 1.8 23.8693 1.88533 23.976 2.056L27.352 8.52L30.76 2.056C30.7813 1.992 30.824 1.93333 30.888 1.88C30.9627 1.82667 31.0533 1.8 31.16 1.8H31.944C32.0613 1.8 32.152 1.83733 32.216 1.912C32.2907 1.976 32.328 2.06667 32.328 2.184V12.632C32.328 12.7387 32.2907 12.8293 32.216 12.904C32.1413 12.968 32.0507 13 31.944 13H31.16C31.0533 13 30.9627 12.968 30.888 12.904C30.824 12.8293 30.792 12.7387 30.792 12.632V4.76L28.12 9.976C28.0133 10.2 27.8427 10.312 27.608 10.312H27.112C26.8773 10.312 26.7067 10.2 26.6 9.976L23.912 4.76V12.632C23.912 12.7387 23.8747 12.8293 23.8 12.904C23.736 12.968 23.6507 13 23.544 13H22.76ZM38.2151 13.16C37.1165 13.16 36.2365 12.824 35.5751 12.152C34.9245 11.4693 34.5671 10.5413 34.5031 9.368L34.4871 8.824L34.5031 8.296C34.5778 7.144 34.9405 6.22667 35.5911 5.544C36.2525 4.86133 37.1218 4.52 38.1991 4.52C39.3831 4.52 40.3005 4.89867 40.9511 5.656C41.6018 6.40267 41.9271 7.416 41.9271 8.696V8.968C41.9271 9.07467 41.8898 9.16533 41.8151 9.24C41.7511 9.304 41.6658 9.336 41.5591 9.336H36.0231V9.48C36.0551 10.1733 36.2631 10.7653 36.6471 11.256C37.0418 11.736 37.5591 11.976 38.1991 11.976C38.6898 11.976 39.0898 11.88 39.3991 11.688C39.7191 11.4853 39.9538 11.2773 40.1031 11.064C40.1991 10.936 40.2685 10.8613 40.3111 10.84C40.3645 10.808 40.4551 10.792 40.5831 10.792H41.3671C41.4631 10.792 41.5431 10.8187 41.6071 10.872C41.6711 10.9253 41.7031 11 41.7031 11.096C41.7031 11.3307 41.5538 11.6133 41.2551 11.944C40.9671 12.2747 40.5565 12.5627 40.0231 12.808C39.5005 13.0427 38.8978 13.16 38.2151 13.16ZM40.4071 8.232V8.184C40.4071 7.448 40.2045 6.85067 39.7991 6.392C39.4045 5.92267 38.8711 5.688 38.1991 5.688C37.5271 5.688 36.9938 5.92267 36.5991 6.392C36.2151 6.85067 36.0231 7.448 36.0231 8.184V8.232H40.4071ZM44.2083 13C44.1016 13 44.0109 12.968 43.9363 12.904C43.8723 12.8293 43.8403 12.7387 43.8403 12.632V5.048C43.8403 4.94133 43.8723 4.856 43.9363 4.792C44.0109 4.71733 44.1016 4.68 44.2083 4.68H44.9283C45.0349 4.68 45.1203 4.71733 45.1843 4.792C45.2589 4.856 45.2963 4.94133 45.2963 5.048V5.608C45.8509 4.88267 46.6243 4.52 47.6163 4.52C48.8003 4.52 49.6376 5.01067 50.1283 5.992C50.3843 5.544 50.7469 5.18667 51.2163 4.92C51.6856 4.65333 52.2136 4.52 52.8003 4.52C53.6749 4.52 54.3896 4.81867 54.9443 5.416C55.4989 6.01333 55.7763 6.87733 55.7763 8.008V12.632C55.7763 12.7387 55.7389 12.8293 55.6643 12.904C55.6003 12.968 55.5149 13 55.4083 13H54.6563C54.5496 13 54.4589 12.968 54.3843 12.904C54.3203 12.8293 54.2883 12.7387 54.2883 12.632V8.152C54.2883 7.32 54.1123 6.72267 53.7603 6.36C53.4189 5.99733 52.9656 5.816 52.4003 5.816C51.8989 5.816 51.4669 6.00267 51.1042 6.376C50.7416 6.73867 50.5603 7.33067 50.5603 8.152V12.632C50.5603 12.7387 50.5229 12.8293 50.4483 12.904C50.3843 12.968 50.2989 13 50.1923 13H49.4403C49.3336 13 49.2429 12.968 49.1683 12.904C49.1043 12.8293 49.0723 12.7387 49.0723 12.632V8.152C49.0723 7.32 48.8909 6.72267 48.5283 6.36C48.1763 5.99733 47.7283 5.816 47.1843 5.816C46.6829 5.816 46.2509 6.00267 45.8883 6.376C45.5256 6.73867 45.3443 7.32533 45.3443 8.136V12.632C45.3443 12.7387 45.3069 12.8293 45.2323 12.904C45.1683 12.968 45.0829 13 44.9763 13H44.2083ZM61.387 13.16C60.2883 13.16 59.4083 12.824 58.747 12.152C58.0963 11.4693 57.739 10.5413 57.675 9.368L57.659 8.824L57.675 8.296C57.7497 7.144 58.1123 6.22667 58.763 5.544C59.4243 4.86133 60.2937 4.52 61.371 4.52C62.555 4.52 63.4723 4.89867 64.123 5.656C64.7737 6.40267 65.099 7.416 65.099 8.696V8.968C65.099 9.07467 65.0617 9.16533 64.987 9.24C64.923 9.304 64.8377 9.336 64.731 9.336H59.195V9.48C59.227 10.1733 59.435 10.7653 59.819 11.256C60.2137 11.736 60.731 11.976 61.371 11.976C61.8617 11.976 62.2617 11.88 62.571 11.688C62.891 11.4853 63.1257 11.2773 63.275 11.064C63.371 10.936 63.4403 10.8613 63.483 10.84C63.5363 10.808 63.627 10.792 63.755 10.792H64.539C64.635 10.792 64.715 10.8187 64.779 10.872C64.843 10.9253 64.875 11 64.875 11.096C64.875 11.3307 64.7257 11.6133 64.427 11.944C64.139 12.2747 63.7283 12.5627 63.195 12.808C62.6723 13.0427 62.0697 13.16 61.387 13.16ZM63.579 8.232V8.184C63.579 7.448 63.3763 6.85067 62.971 6.392C62.5763 5.92267 62.043 5.688 61.371 5.688C60.699 5.688 60.1657 5.92267 59.771 6.392C59.387 6.85067 59.195 7.448 59.195 8.184V8.232H63.579ZM69.8921 13.16C69.1455 13.16 68.5161 13.0427 68.0041 12.808C67.5028 12.5627 67.1241 12.2853 66.8681 11.976C66.6228 11.6667 66.5001 11.4107 66.5001 11.208C66.5001 11.1013 66.5375 11.0213 66.6121 10.968C66.6975 10.904 66.7828 10.872 66.8681 10.872H67.5881C67.6948 10.872 67.7908 10.9253 67.8761 11.032C68.1321 11.3307 68.4095 11.5653 68.7081 11.736C69.0068 11.9067 69.4068 11.992 69.9081 11.992C70.4628 11.992 70.9108 11.8853 71.2521 11.672C71.6041 11.448 71.7801 11.144 71.7801 10.76C71.7801 10.504 71.7055 10.296 71.5561 10.136C71.4175 9.96533 71.1721 9.82133 70.8201 9.704C70.4788 9.576 69.9668 9.43733 69.2841 9.288C68.3561 9.08533 67.6948 8.792 67.3001 8.408C66.9161 8.024 66.7241 7.528 66.7241 6.92C66.7241 6.51467 66.8415 6.13067 67.0761 5.768C67.3215 5.39467 67.6735 5.096 68.1321 4.872C68.6015 4.63733 69.1615 4.52 69.8121 4.52C70.4948 4.52 71.0761 4.632 71.5561 4.856C72.0361 5.08 72.3935 5.34667 72.6281 5.656C72.8735 5.95467 72.9961 6.20533 72.9961 6.408C72.9961 6.504 72.9588 6.584 72.8841 6.648C72.8201 6.712 72.7401 6.744 72.6441 6.744H71.9721C71.8441 6.744 71.7375 6.69067 71.6521 6.584C71.4815 6.38133 71.3321 6.22667 71.2041 6.12C71.0868 6.00267 70.9108 5.90133 70.6761 5.816C70.4521 5.73067 70.1641 5.688 69.8121 5.688C69.3001 5.688 68.9055 5.8 68.6281 6.024C68.3508 6.23733 68.2121 6.52 68.2121 6.872C68.2121 7.096 68.2708 7.288 68.3881 7.448C68.5055 7.59733 68.7295 7.736 69.0601 7.864C69.4015 7.992 69.8921 8.12533 70.5321 8.264C71.5455 8.47733 72.2601 8.78667 72.6761 9.192C73.1028 9.58667 73.3161 10.0933 73.3161 10.712C73.3161 11.1707 73.1828 11.5867 72.9161 11.96C72.6495 12.3333 72.2548 12.6267 71.7321 12.84C71.2201 13.0533 70.6068 13.16 69.8921 13.16Z" fill="#555555"/>
</svg>
