<svg width="65" height="15" viewBox="0 0 65 15" fill="none" xmlns="http://www.w3.org/2000/svg">
<path d="M15.8341 0V11.6672C15.834 12.401 15.5917 13.1143 15.1449 13.6963C14.6981 14.2784 14.0717 14.6968 13.3629 14.8866C12.654 15.0764 11.9024 15.027 11.2245 14.7461C10.5466 14.4652 9.98037 13.9684 9.61354 13.3329C9.24672 12.6974 9.09984 11.9586 9.19568 11.2311C9.29152 10.5036 9.62473 9.82806 10.1436 9.30923C10.6625 8.79039 11.3381 8.45726 12.0656 8.36151C12.7931 8.26575 13.5319 8.41271 14.1674 8.7796V1.66675H6.667V11.6672C6.66684 12.401 6.42456 13.1143 5.97775 13.6963C5.53093 14.2784 4.90455 14.6968 4.19573 14.8866C3.48692 15.0764 2.73529 15.027 2.0574 14.7461C1.37951 14.4652 0.813243 13.9684 0.446422 13.3329C0.0796005 12.6974 -0.0672795 11.9586 0.0285599 11.2311C0.124399 10.5036 0.457603 9.82806 0.976496 9.30923C1.49539 8.79039 2.17098 8.45726 2.89849 8.36151C3.626 8.26575 4.36478 8.41271 5.00025 8.7796V0H15.8341ZM3.3335 13.334C3.77555 13.334 4.1995 13.1584 4.51207 12.8458C4.82465 12.5332 5.00025 12.1093 5.00025 11.6672C5.00025 11.2252 4.82465 10.8013 4.51207 10.4887C4.1995 10.1761 3.77555 10.0005 3.3335 10.0005C2.89145 10.0005 2.46751 10.1761 2.15493 10.4887C1.84236 10.8013 1.66675 11.2252 1.66675 11.6672C1.66675 12.1093 1.84236 12.5332 2.15493 12.8458C2.46751 13.1584 2.89145 13.334 3.3335 13.334ZM12.5006 13.334C12.9427 13.334 13.3666 13.1584 13.6792 12.8458C13.9918 12.5332 14.1674 12.1093 14.1674 11.6672C14.1674 11.2252 13.9918 10.8013 13.6792 10.4887C13.3666 10.1761 12.9427 10.0005 12.5006 10.0005C12.0586 10.0005 11.6346 10.1761 11.3221 10.4887C11.0095 10.8013 10.8339 11.2252 10.8339 11.6672C10.8339 12.1093 11.0095 12.5332 11.3221 12.8458C11.6346 13.1584 12.0586 13.334 12.5006 13.334Z" fill="#555555"/>
<path d="M23.76 13C23.6533 13 23.5627 12.968 23.488 12.904C23.424 12.8293 23.392 12.7387 23.392 12.632V2.184C23.392 2.06667 23.424 1.976 23.488 1.912C23.5627 1.83733 23.6533 1.8 23.76 1.8H24.56C24.7307 1.8 24.8693 1.88533 24.976 2.056L28.352 8.52L31.76 2.056C31.7813 1.992 31.824 1.93333 31.888 1.88C31.9627 1.82667 32.0533 1.8 32.16 1.8H32.944C33.0613 1.8 33.152 1.83733 33.216 1.912C33.2907 1.976 33.328 2.06667 33.328 2.184V12.632C33.328 12.7387 33.2907 12.8293 33.216 12.904C33.1413 12.968 33.0507 13 32.944 13H32.16C32.0533 13 31.9627 12.968 31.888 12.904C31.824 12.8293 31.792 12.7387 31.792 12.632V4.76L29.12 9.976C29.0133 10.2 28.8427 10.312 28.608 10.312H28.112C27.8773 10.312 27.7067 10.2 27.6 9.976L24.912 4.76V12.632C24.912 12.7387 24.8747 12.8293 24.8 12.904C24.736 12.968 24.6507 13 24.544 13H23.76ZM38.9911 13.16C37.9778 13.16 37.1938 12.8347 36.6391 12.184C36.0845 11.5227 35.8071 10.648 35.8071 9.56V5.048C35.8071 4.94133 35.8391 4.856 35.9031 4.792C35.9778 4.71733 36.0685 4.68 36.1751 4.68H36.9751C37.0818 4.68 37.1671 4.71733 37.2311 4.792C37.3058 4.856 37.3431 4.94133 37.3431 5.048V9.48C37.3431 11.0693 38.0365 11.864 39.4231 11.864C40.0951 11.864 40.6285 11.656 41.0231 11.24C41.4178 10.8133 41.6151 10.2267 41.6151 9.48V5.048C41.6151 4.94133 41.6471 4.856 41.7111 4.792C41.7858 4.71733 41.8765 4.68 41.9831 4.68H42.7831C42.8898 4.68 42.9751 4.71733 43.0391 4.792C43.1031 4.856 43.1351 4.94133 43.1351 5.048V12.632C43.1351 12.7387 43.1031 12.8293 43.0391 12.904C42.9751 12.968 42.8898 13 42.7831 13H42.0311C41.9245 13 41.8338 12.968 41.7591 12.904C41.6951 12.8293 41.6631 12.7387 41.6631 12.632V11.928C41.3645 12.3333 41.0018 12.6427 40.5751 12.856C40.1485 13.0587 39.6205 13.16 38.9911 13.16ZM48.3921 13.16C47.6455 13.16 47.0161 13.0427 46.5041 12.808C46.0028 12.5627 45.6241 12.2853 45.3681 11.976C45.1228 11.6667 45.0001 11.4107 45.0001 11.208C45.0001 11.1013 45.0375 11.0213 45.1121 10.968C45.1975 10.904 45.2828 10.872 45.3681 10.872H46.0881C46.1948 10.872 46.2908 10.9253 46.3761 11.032C46.6321 11.3307 46.9095 11.5653 47.2081 11.736C47.5068 11.9067 47.9068 11.992 48.4081 11.992C48.9628 11.992 49.4108 11.8853 49.7521 11.672C50.1041 11.448 50.2801 11.144 50.2801 10.76C50.2801 10.504 50.2055 10.296 50.0561 10.136C49.9175 9.96533 49.6721 9.82133 49.3201 9.704C48.9788 9.576 48.4668 9.43733 47.7841 9.288C46.8561 9.08533 46.1948 8.792 45.8001 8.408C45.4161 8.024 45.2241 7.528 45.2241 6.92C45.2241 6.51467 45.3415 6.13067 45.5761 5.768C45.8215 5.39467 46.1735 5.096 46.6321 4.872C47.1015 4.63733 47.6615 4.52 48.3121 4.52C48.9948 4.52 49.5761 4.632 50.0561 4.856C50.5361 5.08 50.8935 5.34667 51.1281 5.656C51.3735 5.95467 51.4961 6.20533 51.4961 6.408C51.4961 6.504 51.4588 6.584 51.3841 6.648C51.3201 6.712 51.2401 6.744 51.1441 6.744H50.4721C50.3441 6.744 50.2375 6.69067 50.1521 6.584C49.9815 6.38133 49.8321 6.22667 49.7041 6.12C49.5868 6.00267 49.4108 5.90133 49.1761 5.816C48.9521 5.73067 48.6641 5.688 48.3121 5.688C47.8001 5.688 47.4055 5.8 47.1281 6.024C46.8508 6.23733 46.7121 6.52 46.7121 6.872C46.7121 7.096 46.7708 7.288 46.8881 7.448C47.0055 7.59733 47.2295 7.736 47.5601 7.864C47.9015 7.992 48.3921 8.12533 49.0321 8.264C50.0455 8.47733 50.7601 8.78667 51.1761 9.192C51.6028 9.58667 51.8161 10.0933 51.8161 10.712C51.8161 11.1707 51.6828 11.5867 51.4161 11.96C51.1495 12.3333 50.7548 12.6267 50.2321 12.84C49.7201 13.0533 49.1068 13.16 48.3921 13.16ZM53.9084 3.128C53.8017 3.128 53.711 3.096 53.6364 3.032C53.5724 2.95733 53.5404 2.86667 53.5404 2.76V1.896C53.5404 1.78933 53.5724 1.69867 53.6364 1.624C53.711 1.54933 53.8017 1.512 53.9084 1.512H54.9164C55.023 1.512 55.1137 1.54933 55.1884 1.624C55.263 1.69867 55.3004 1.78933 55.3004 1.896V2.76C55.3004 2.86667 55.263 2.95733 55.1884 3.032C55.1137 3.096 55.023 3.128 54.9164 3.128H53.9084ZM54.0364 13C53.9297 13 53.839 12.968 53.7644 12.904C53.7004 12.8293 53.6684 12.7387 53.6684 12.632V5.048C53.6684 4.94133 53.7004 4.856 53.7644 4.792C53.839 4.71733 53.9297 4.68 54.0364 4.68H54.8044C54.911 4.68 54.9964 4.71733 55.0604 4.792C55.135 4.856 55.1724 4.94133 55.1724 5.048V12.632C55.1724 12.7387 55.135 12.8293 55.0604 12.904C54.9964 12.968 54.911 13 54.8044 13H54.0364ZM60.9034 13.16C59.762 13.16 58.866 12.84 58.2154 12.2C57.5754 11.5493 57.234 10.6427 57.1914 9.48L57.1754 8.84L57.1914 8.2C57.234 7.03733 57.5754 6.136 58.2154 5.496C58.866 4.84533 59.762 4.52 60.9034 4.52C61.6714 4.52 62.322 4.65867 62.8554 4.936C63.3887 5.21333 63.7834 5.55467 64.0394 5.96C64.306 6.36533 64.45 6.77067 64.4714 7.176C64.482 7.28267 64.45 7.368 64.3754 7.432C64.3007 7.496 64.21 7.528 64.1034 7.528H63.3354C63.2287 7.528 63.1487 7.50667 63.0954 7.464C63.042 7.42133 62.9887 7.336 62.9354 7.208C62.754 6.696 62.498 6.33333 62.1674 6.12C61.8367 5.896 61.4207 5.784 60.9194 5.784C60.258 5.784 59.73 5.992 59.3354 6.408C58.9514 6.81333 58.7434 7.43733 58.7114 8.28L58.6954 8.856L58.7114 9.4C58.7434 10.2533 58.9514 10.8827 59.3354 11.288C59.7194 11.6933 60.2474 11.896 60.9194 11.896C61.4207 11.896 61.8367 11.7893 62.1674 11.576C62.498 11.352 62.754 10.984 62.9354 10.472C62.9887 10.344 63.042 10.2587 63.0954 10.216C63.1487 10.1627 63.2287 10.136 63.3354 10.136H64.1034C64.21 10.136 64.3007 10.1733 64.3754 10.248C64.45 10.312 64.482 10.3973 64.4714 10.504C64.45 10.8987 64.306 11.304 64.0394 11.72C63.7834 12.1253 63.3887 12.4667 62.8554 12.744C62.3327 13.0213 61.682 13.16 60.9034 13.16Z" fill="#555555"/>
</svg>
