<svg width="64" height="15" viewBox="0 0 64 15" fill="none" xmlns="http://www.w3.org/2000/svg">
<path d="M4.43787 0.443787H15.9763V2.21894H4.43787V0.443787ZM1.33136 2.66272C0.978262 2.66272 0.639625 2.52245 0.389947 2.27278C0.140268 2.0231 0 1.68446 0 1.33136C0 0.978262 0.140268 0.639625 0.389947 0.389947C0.639625 0.140268 0.978262 0 1.33136 0C1.68446 0 2.0231 0.140268 2.27278 0.389947C2.52245 0.639625 2.66272 0.978262 2.66272 1.33136C2.66272 1.68446 2.52245 2.0231 2.27278 2.27278C2.0231 2.52245 1.68446 2.66272 1.33136 2.66272ZM1.33136 8.87574C0.978262 8.87574 0.639625 8.73547 0.389947 8.48579C0.140268 8.23611 0 7.89748 0 7.54438C0 7.19128 0.140268 6.85264 0.389947 6.60296C0.639625 6.35329 0.978262 6.21302 1.33136 6.21302C1.68446 6.21302 2.0231 6.35329 2.27278 6.60296C2.52245 6.85264 2.66272 7.19128 2.66272 7.54438C2.66272 7.89748 2.52245 8.23611 2.27278 8.48579C2.0231 8.73547 1.68446 8.87574 1.33136 8.87574ZM1.33136 15C0.978262 15 0.639625 14.8597 0.389947 14.6101C0.140268 14.3604 0 14.0217 0 13.6686C0 13.3155 0.140268 12.9769 0.389947 12.7272C0.639625 12.4775 0.978262 12.3373 1.33136 12.3373C1.68446 12.3373 2.0231 12.4775 2.27278 12.7272C2.52245 12.9769 2.66272 13.3155 2.66272 13.6686C2.66272 14.0217 2.52245 14.3604 2.27278 14.6101C2.0231 14.8597 1.68446 15 1.33136 15ZM4.43787 6.6568H15.9763V8.43195H4.43787V6.6568ZM4.43787 12.8698H15.9763V14.645H4.43787V12.8698Z" fill="#555555"/>
<path d="M27.424 13.16C26.0267 13.16 24.944 12.7973 24.176 12.072C23.4187 11.336 23.0187 10.232 22.976 8.76C22.9653 8.44 22.96 7.98667 22.96 7.4C22.96 6.81333 22.9653 6.36533 22.976 6.056C23.0187 4.616 23.4347 3.52267 24.224 2.776C25.0133 2.01867 26.08 1.64 27.424 1.64C28.7573 1.64 29.8187 2.01867 30.608 2.776C31.3973 3.52267 31.8133 4.616 31.856 6.056C31.8773 6.67467 31.888 7.12267 31.888 7.4C31.888 7.66667 31.8773 8.12 31.856 8.76C31.8133 10.232 31.408 11.336 30.64 12.072C29.8827 12.7973 28.8107 13.16 27.424 13.16ZM27.424 11.8C28.2667 11.8 28.9387 11.544 29.44 11.032C29.9413 10.52 30.2133 9.736 30.256 8.68C30.2773 8.04 30.288 7.61333 30.288 7.4C30.288 7.16533 30.2773 6.73867 30.256 6.12C30.2133 5.064 29.936 4.28 29.424 3.768C28.9227 3.256 28.256 3 27.424 3C26.5813 3 25.904 3.256 25.392 3.768C24.8907 4.28 24.6187 5.064 24.576 6.12C24.5653 6.42933 24.56 6.856 24.56 7.4C24.56 7.93333 24.5653 8.36 24.576 8.68C24.6187 9.736 24.8907 10.52 25.392 11.032C25.904 11.544 26.5813 11.8 27.424 11.8ZM37.2601 13C35.5748 13 34.7321 12.0613 34.7321 10.184V5.96H33.4841C33.3775 5.96 33.2868 5.928 33.2121 5.864C33.1481 5.78933 33.1161 5.69867 33.1161 5.592V5.048C33.1161 4.94133 33.1481 4.856 33.2121 4.792C33.2868 4.71733 33.3775 4.68 33.4841 4.68H34.7321V2.008C34.7321 1.90133 34.7641 1.816 34.8281 1.752C34.9028 1.67733 34.9935 1.64 35.1001 1.64H35.8521C35.9588 1.64 36.0441 1.67733 36.1081 1.752C36.1828 1.816 36.2201 1.90133 36.2201 2.008V4.68H38.2041C38.3108 4.68 38.3961 4.71733 38.4601 4.792C38.5348 4.856 38.5721 4.94133 38.5721 5.048V5.592C38.5721 5.69867 38.5348 5.78933 38.4601 5.864C38.3961 5.928 38.3108 5.96 38.2041 5.96H36.2201V10.072C36.2201 10.6053 36.3108 11.0107 36.4921 11.288C36.6735 11.5547 36.9721 11.688 37.3881 11.688H38.3641C38.4708 11.688 38.5561 11.7253 38.6201 11.8C38.6948 11.864 38.7321 11.9493 38.7321 12.056V12.632C38.7321 12.7387 38.6948 12.8293 38.6201 12.904C38.5561 12.968 38.4708 13 38.3641 13H37.2601ZM40.6461 13C40.5395 13 40.4488 12.968 40.3741 12.904C40.3101 12.8293 40.2781 12.7387 40.2781 12.632V2.008C40.2781 1.90133 40.3101 1.816 40.3741 1.752C40.4488 1.67733 40.5395 1.64 40.6461 1.64H41.4461C41.5528 1.64 41.6381 1.67733 41.7021 1.752C41.7768 1.816 41.8141 1.90133 41.8141 2.008V5.736C42.1235 5.34133 42.4861 5.04267 42.9021 4.84C43.3181 4.62667 43.8355 4.52 44.4541 4.52C45.4781 4.52 46.2728 4.85067 46.8381 5.512C47.4141 6.16267 47.7021 7.032 47.7021 8.12V12.632C47.7021 12.7387 47.6648 12.8293 47.5901 12.904C47.5261 12.968 47.4408 13 47.3341 13H46.5341C46.4275 13 46.3368 12.968 46.2621 12.904C46.1981 12.8293 46.1661 12.7387 46.1661 12.632V8.2C46.1661 7.44267 45.9795 6.856 45.6061 6.44C45.2435 6.024 44.7155 5.816 44.0221 5.816C43.3501 5.816 42.8115 6.02933 42.4061 6.456C42.0115 6.872 41.8141 7.45333 41.8141 8.2V12.632C41.8141 12.7387 41.7768 12.8293 41.7021 12.904C41.6381 12.968 41.5528 13 41.4461 13H40.6461ZM53.3401 13.16C52.2415 13.16 51.3615 12.824 50.7001 12.152C50.0495 11.4693 49.6921 10.5413 49.6281 9.368L49.6121 8.824L49.6281 8.296C49.7028 7.144 50.0655 6.22667 50.7161 5.544C51.3775 4.86133 52.2468 4.52 53.3241 4.52C54.5081 4.52 55.4255 4.89867 56.0761 5.656C56.7268 6.40267 57.0521 7.416 57.0521 8.696V8.968C57.0521 9.07467 57.0148 9.16533 56.9401 9.24C56.8761 9.304 56.7908 9.336 56.6841 9.336H51.1481V9.48C51.1801 10.1733 51.3881 10.7653 51.7721 11.256C52.1668 11.736 52.6841 11.976 53.3241 11.976C53.8148 11.976 54.2148 11.88 54.5241 11.688C54.8441 11.4853 55.0788 11.2773 55.2281 11.064C55.3241 10.936 55.3935 10.8613 55.4361 10.84C55.4895 10.808 55.5801 10.792 55.7081 10.792H56.4921C56.5881 10.792 56.6681 10.8187 56.7321 10.872C56.7961 10.9253 56.8281 11 56.8281 11.096C56.8281 11.3307 56.6788 11.6133 56.3801 11.944C56.0921 12.2747 55.6815 12.5627 55.1481 12.808C54.6255 13.0427 54.0228 13.16 53.3401 13.16ZM55.5321 8.232V8.184C55.5321 7.448 55.3295 6.85067 54.9241 6.392C54.5295 5.92267 53.9961 5.688 53.3241 5.688C52.6521 5.688 52.1188 5.92267 51.7241 6.392C51.3401 6.85067 51.1481 7.448 51.1481 8.184V8.232H55.5321ZM59.3333 13C59.2266 13 59.1359 12.968 59.0613 12.904C58.9973 12.8293 58.9653 12.7387 58.9653 12.632V5.064C58.9653 4.95733 58.9973 4.86667 59.0613 4.792C59.1359 4.71733 59.2266 4.68 59.3333 4.68H60.0693C60.1759 4.68 60.2666 4.71733 60.3413 4.792C60.4159 4.86667 60.4533 4.95733 60.4533 5.064V5.768C60.8906 5.04267 61.6373 4.68 62.6933 4.68H63.3173C63.4239 4.68 63.5093 4.71733 63.5733 4.792C63.6479 4.856 63.6853 4.94133 63.6853 5.048V5.704C63.6853 5.81067 63.6479 5.896 63.5733 5.96C63.5093 6.024 63.4239 6.056 63.3173 6.056H62.3573C61.7813 6.056 61.3279 6.22667 60.9973 6.568C60.6666 6.89867 60.5013 7.352 60.5013 7.928V12.632C60.5013 12.7387 60.4639 12.8293 60.3893 12.904C60.3146 12.968 60.2239 13 60.1173 13H59.3333Z" fill="#555555"/>
</svg>
