<svg width="120" height="17" viewBox="0 0 120 17" fill="none" xmlns="http://www.w3.org/2000/svg">
<path d="M6.52333 1.66667L4.85667 3.33333H1.66667V13.3333H15V3.33333H11.81L10.1433 1.66667H6.52333ZM5.83333 0H10.8333L12.5 1.66667H15.8333C16.0543 1.66667 16.2663 1.75446 16.4226 1.91074C16.5789 2.06702 16.6667 2.27899 16.6667 2.5V14.1667C16.6667 14.3877 16.5789 14.5996 16.4226 14.7559C16.2663 14.9122 16.0543 15 15.8333 15H0.833333C0.61232 15 0.400358 14.9122 0.244078 14.7559C0.0877973 14.5996 0 14.3877 0 14.1667V2.5C0 2.27899 0.0877973 2.06702 0.244078 1.91074C0.400358 1.75446 0.61232 1.66667 0.833333 1.66667H4.16667L5.83333 0ZM8.33333 12.5C7.11776 12.5 5.95197 12.0171 5.09243 11.1576C4.23289 10.298 3.75 9.13224 3.75 7.91667C3.75 6.70109 4.23289 5.5353 5.09243 4.67576C5.95197 3.81622 7.11776 3.33333 8.33333 3.33333C9.54891 3.33333 10.7147 3.81622 11.5742 4.67576C12.4338 5.5353 12.9167 6.70109 12.9167 7.91667C12.9167 9.13224 12.4338 10.298 11.5742 11.1576C10.7147 12.0171 9.54891 12.5 8.33333 12.5ZM8.33333 10.8333C9.10688 10.8333 9.84875 10.526 10.3957 9.97906C10.9427 9.43208 11.25 8.69021 11.25 7.91667C11.25 7.14312 10.9427 6.40125 10.3957 5.85427C9.84875 5.30729 9.10688 5 8.33333 5C7.55979 5 6.81792 5.30729 6.27094 5.85427C5.72396 6.40125 5.41667 7.14312 5.41667 7.91667C5.41667 8.69021 5.72396 9.43208 6.27094 9.97906C6.81792 10.526 7.55979 10.8333 8.33333 10.8333Z" fill="#555555"/>
<path d="M24.76 13C24.6533 13 24.5627 12.968 24.488 12.904C24.424 12.8293 24.392 12.7387 24.392 12.632V2.184C24.392 2.06667 24.424 1.976 24.488 1.912C24.5627 1.83733 24.6533 1.8 24.76 1.8H28.824C30.0293 1.8 30.9787 2.09333 31.672 2.68C32.3653 3.26667 32.712 4.11467 32.712 5.224C32.712 6.33333 32.3653 7.18133 31.672 7.768C30.9893 8.344 30.04 8.632 28.824 8.632H25.992V12.632C25.992 12.7387 25.9547 12.8293 25.88 12.904C25.8053 12.968 25.7147 13 25.608 13H24.76ZM28.744 7.288C29.5227 7.288 30.1093 7.112 30.504 6.76C30.9093 6.408 31.112 5.896 31.112 5.224C31.112 4.552 30.9147 4.04 30.52 3.688C30.1253 3.32533 29.5333 3.144 28.744 3.144H25.976V7.288H28.744ZM34.8336 13C34.727 13 34.6363 12.968 34.5616 12.904C34.4976 12.8293 34.4656 12.7387 34.4656 12.632V2.008C34.4656 1.90133 34.4976 1.816 34.5616 1.752C34.6363 1.67733 34.727 1.64 34.8336 1.64H35.6336C35.7403 1.64 35.8256 1.67733 35.8896 1.752C35.9643 1.816 36.0016 1.90133 36.0016 2.008V5.736C36.311 5.34133 36.6736 5.04267 37.0896 4.84C37.5056 4.62667 38.023 4.52 38.6416 4.52C39.6656 4.52 40.4603 4.85067 41.0256 5.512C41.6016 6.16267 41.8896 7.032 41.8896 8.12V12.632C41.8896 12.7387 41.8523 12.8293 41.7776 12.904C41.7136 12.968 41.6283 13 41.5216 13H40.7216C40.615 13 40.5243 12.968 40.4496 12.904C40.3856 12.8293 40.3536 12.7387 40.3536 12.632V8.2C40.3536 7.44267 40.167 6.856 39.7936 6.44C39.431 6.024 38.903 5.816 38.2096 5.816C37.5376 5.816 36.999 6.02933 36.5936 6.456C36.199 6.872 36.0016 7.45333 36.0016 8.2V12.632C36.0016 12.7387 35.9643 12.8293 35.8896 12.904C35.8256 12.968 35.7403 13 35.6336 13H34.8336ZM47.6076 13.16C46.4343 13.16 45.5223 12.8293 44.8716 12.168C44.2316 11.5067 43.8903 10.6267 43.8476 9.528L43.8316 8.84L43.8476 8.152C43.8903 7.064 44.237 6.18933 44.8876 5.528C45.5383 4.856 46.445 4.52 47.6076 4.52C48.7703 4.52 49.677 4.856 50.3276 5.528C50.9783 6.18933 51.325 7.064 51.3676 8.152C51.3783 8.26933 51.3836 8.49867 51.3836 8.84C51.3836 9.18133 51.3783 9.41067 51.3676 9.528C51.325 10.6267 50.9783 11.5067 50.3276 12.168C49.6876 12.8293 48.781 13.16 47.6076 13.16ZM47.6076 11.928C48.2796 11.928 48.8076 11.7147 49.1916 11.288C49.5863 10.8613 49.7996 10.248 49.8316 9.448C49.8423 9.34133 49.8476 9.13867 49.8476 8.84C49.8476 8.54133 49.8423 8.33867 49.8316 8.232C49.7996 7.432 49.5863 6.81867 49.1916 6.392C48.8076 5.96533 48.2796 5.752 47.6076 5.752C46.9356 5.752 46.4023 5.96533 46.0076 6.392C45.613 6.81867 45.405 7.432 45.3836 8.232L45.3676 8.84L45.3836 9.448C45.405 10.248 45.613 10.8613 46.0076 11.288C46.4023 11.7147 46.9356 11.928 47.6076 11.928ZM56.557 13C54.8717 13 54.029 12.0613 54.029 10.184V5.96H52.781C52.6743 5.96 52.5837 5.928 52.509 5.864C52.445 5.78933 52.413 5.69867 52.413 5.592V5.048C52.413 4.94133 52.445 4.856 52.509 4.792C52.5837 4.71733 52.6743 4.68 52.781 4.68H54.029V2.008C54.029 1.90133 54.061 1.816 54.125 1.752C54.1997 1.67733 54.2903 1.64 54.397 1.64H55.149C55.2557 1.64 55.341 1.67733 55.405 1.752C55.4797 1.816 55.517 1.90133 55.517 2.008V4.68H57.501C57.6077 4.68 57.693 4.71733 57.757 4.792C57.8317 4.856 57.869 4.94133 57.869 5.048V5.592C57.869 5.69867 57.8317 5.78933 57.757 5.864C57.693 5.928 57.6077 5.96 57.501 5.96H55.517V10.072C55.517 10.6053 55.6077 11.0107 55.789 11.288C55.9703 11.5547 56.269 11.688 56.685 11.688H57.661C57.7677 11.688 57.853 11.7253 57.917 11.8C57.9917 11.864 58.029 11.9493 58.029 12.056V12.632C58.029 12.7387 57.9917 12.8293 57.917 12.904C57.853 12.968 57.7677 13 57.661 13H56.557ZM62.967 13.16C61.7937 13.16 60.8817 12.8293 60.231 12.168C59.591 11.5067 59.2497 10.6267 59.207 9.528L59.191 8.84L59.207 8.152C59.2497 7.064 59.5963 6.18933 60.247 5.528C60.8977 4.856 61.8043 4.52 62.967 4.52C64.1297 4.52 65.0363 4.856 65.687 5.528C66.3377 6.18933 66.6843 7.064 66.727 8.152C66.7377 8.26933 66.743 8.49867 66.743 8.84C66.743 9.18133 66.7377 9.41067 66.727 9.528C66.6843 10.6267 66.3377 11.5067 65.687 12.168C65.047 12.8293 64.1403 13.16 62.967 13.16ZM62.967 11.928C63.639 11.928 64.167 11.7147 64.551 11.288C64.9457 10.8613 65.159 10.248 65.191 9.448C65.2017 9.34133 65.207 9.13867 65.207 8.84C65.207 8.54133 65.2017 8.33867 65.191 8.232C65.159 7.432 64.9457 6.81867 64.551 6.392C64.167 5.96533 63.639 5.752 62.967 5.752C62.295 5.752 61.7617 5.96533 61.367 6.392C60.9723 6.81867 60.7643 7.432 60.743 8.232L60.727 8.84L60.743 9.448C60.7643 10.248 60.9723 10.8613 61.367 11.288C61.7617 11.7147 62.295 11.928 62.967 11.928ZM72.1545 16.52C71.2798 16.52 70.5758 16.3707 70.0425 16.072C69.5092 15.784 69.1305 15.4533 68.9065 15.08C68.6825 14.7067 68.5598 14.3707 68.5385 14.072C68.5278 13.9653 68.5598 13.8747 68.6345 13.8C68.7198 13.7253 68.8105 13.688 68.9065 13.688H69.6745C69.7705 13.688 69.8505 13.7093 69.9145 13.752C69.9785 13.8053 70.0318 13.896 70.0745 14.024C70.2025 14.3653 70.4105 14.6587 70.6985 14.904C70.9972 15.16 71.4558 15.288 72.0745 15.288C72.8638 15.288 73.4452 15.1173 73.8185 14.776C74.1918 14.4453 74.3785 13.8533 74.3785 13V11.912C74.1012 12.264 73.7492 12.5467 73.3225 12.76C72.8958 12.9627 72.3892 13.064 71.8025 13.064C70.6718 13.064 69.8238 12.7067 69.2585 11.992C68.7038 11.2667 68.4105 10.3493 68.3785 9.24L68.3625 8.792L68.3785 8.36C68.4105 7.26133 68.7092 6.34933 69.2745 5.624C69.8398 4.888 70.6825 4.52 71.8025 4.52C72.9225 4.52 73.7972 4.93067 74.4265 5.752V5.064C74.4265 4.95733 74.4585 4.86667 74.5225 4.792C74.5972 4.71733 74.6878 4.68 74.7945 4.68H75.5305C75.6372 4.68 75.7278 4.71733 75.8025 4.792C75.8772 4.86667 75.9145 4.95733 75.9145 5.064V12.824C75.9145 15.288 74.6612 16.52 72.1545 16.52ZM72.1225 11.784C72.8478 11.784 73.3972 11.544 73.7705 11.064C74.1438 10.584 74.3465 10.0133 74.3785 9.352C74.3892 9.256 74.3945 9.06933 74.3945 8.792C74.3945 8.52533 74.3892 8.344 74.3785 8.248C74.3465 7.58667 74.1438 7.016 73.7705 6.536C73.4078 6.056 72.8585 5.816 72.1225 5.816C71.3652 5.816 70.8158 6.05067 70.4745 6.52C70.1332 6.98933 69.9465 7.608 69.9145 8.376L69.8985 8.792L69.9145 9.224C69.9465 9.98133 70.1332 10.6 70.4745 11.08C70.8158 11.5493 71.3652 11.784 72.1225 11.784ZM78.6614 13C78.5547 13 78.464 12.968 78.3894 12.904C78.3254 12.8293 78.2934 12.7387 78.2934 12.632V5.064C78.2934 4.95733 78.3254 4.86667 78.3894 4.792C78.464 4.71733 78.5547 4.68 78.6614 4.68H79.3974C79.504 4.68 79.5947 4.71733 79.6694 4.792C79.744 4.86667 79.7814 4.95733 79.7814 5.064V5.768C80.2187 5.04267 80.9654 4.68 82.0214 4.68H82.6454C82.752 4.68 82.8374 4.71733 82.9014 4.792C82.976 4.856 83.0134 4.94133 83.0134 5.048V5.704C83.0134 5.81067 82.976 5.896 82.9014 5.96C82.8374 6.024 82.752 6.056 82.6454 6.056H81.6854C81.1094 6.056 80.656 6.22667 80.3254 6.568C79.9947 6.89867 79.8294 7.352 79.8294 7.928V12.632C79.8294 12.7387 79.792 12.8293 79.7174 12.904C79.6427 12.968 79.552 13 79.4454 13H78.6614ZM86.5665 13.16C86.0438 13.16 85.5585 13.0533 85.1105 12.84C84.6625 12.6267 84.3052 12.3387 84.0385 11.976C83.7825 11.6027 83.6545 11.192 83.6545 10.744C83.6545 10.04 83.9425 9.464 84.5185 9.016C85.1052 8.55733 85.8945 8.25867 86.8865 8.12L89.2705 7.784V7.32C89.2705 6.232 88.6465 5.688 87.3985 5.688C86.9292 5.688 86.5452 5.78933 86.2465 5.992C85.9478 6.184 85.7238 6.41333 85.5745 6.68C85.5425 6.776 85.4998 6.84533 85.4465 6.888C85.4038 6.93067 85.3398 6.952 85.2545 6.952H84.5665C84.4705 6.952 84.3852 6.92 84.3105 6.856C84.2465 6.78133 84.2145 6.696 84.2145 6.6C84.2252 6.344 84.3425 6.056 84.5665 5.736C84.8012 5.40533 85.1585 5.12267 85.6385 4.888C86.1185 4.64267 86.7105 4.52 87.4145 4.52C88.6092 4.52 89.4678 4.80267 89.9905 5.368C90.5132 5.92267 90.7745 6.616 90.7745 7.448V12.632C90.7745 12.7387 90.7372 12.8293 90.6625 12.904C90.5985 12.968 90.5132 13 90.4065 13H89.6705C89.5638 13 89.4732 12.968 89.3985 12.904C89.3345 12.8293 89.3025 12.7387 89.3025 12.632V11.944C89.0678 12.2853 88.7265 12.5733 88.2785 12.808C87.8305 13.0427 87.2598 13.16 86.5665 13.16ZM86.9025 11.96C87.5958 11.96 88.1612 11.736 88.5985 11.288C89.0465 10.8293 89.2705 10.1733 89.2705 9.32V8.872L87.4145 9.144C86.6572 9.25067 86.0865 9.432 85.7025 9.688C85.3185 9.93333 85.1265 10.248 85.1265 10.632C85.1265 11.0587 85.3025 11.3893 85.6545 11.624C86.0065 11.848 86.4225 11.96 86.9025 11.96ZM93.4586 16.04C93.352 16.04 93.2613 16.0027 93.1866 15.928C93.1226 15.864 93.0906 15.7787 93.0906 15.672V5.048C93.0906 4.94133 93.1226 4.856 93.1866 4.792C93.2613 4.71733 93.352 4.68 93.4586 4.68H94.1946C94.3013 4.68 94.3866 4.71733 94.4506 4.792C94.5253 4.856 94.5626 4.94133 94.5626 5.048V5.752C95.16 4.93067 96.0346 4.52 97.1866 4.52C98.3066 4.52 99.144 4.872 99.6986 5.576C100.264 6.28 100.568 7.18667 100.611 8.296C100.621 8.41333 100.627 8.59467 100.627 8.84C100.627 9.08533 100.621 9.26667 100.611 9.384C100.568 10.4827 100.264 11.3893 99.6986 12.104C99.1333 12.808 98.296 13.16 97.1866 13.16C96.0773 13.16 95.2133 12.76 94.5946 11.96V15.672C94.5946 15.7787 94.5626 15.864 94.4986 15.928C94.4346 16.0027 94.3493 16.04 94.2426 16.04H93.4586ZM96.8506 11.864C97.608 11.864 98.1573 11.6293 98.4986 11.16C98.8506 10.6907 99.0426 10.072 99.0746 9.304C99.0853 9.19733 99.0906 9.04267 99.0906 8.84C99.0906 6.824 98.344 5.816 96.8506 5.816C96.1146 5.816 95.56 6.06133 95.1866 6.552C94.824 7.032 94.6266 7.608 94.5946 8.28L94.5786 8.888L94.5946 9.512C94.616 10.1413 94.8186 10.6907 95.2026 11.16C95.5866 11.6293 96.136 11.864 96.8506 11.864ZM102.99 13C102.883 13 102.793 12.968 102.718 12.904C102.654 12.8293 102.622 12.7387 102.622 12.632V2.008C102.622 1.90133 102.654 1.816 102.718 1.752C102.793 1.67733 102.883 1.64 102.99 1.64H103.79C103.897 1.64 103.982 1.67733 104.046 1.752C104.121 1.816 104.158 1.90133 104.158 2.008V5.736C104.467 5.34133 104.83 5.04267 105.246 4.84C105.662 4.62667 106.179 4.52 106.798 4.52C107.822 4.52 108.617 4.85067 109.182 5.512C109.758 6.16267 110.046 7.032 110.046 8.12V12.632C110.046 12.7387 110.009 12.8293 109.934 12.904C109.87 12.968 109.785 13 109.678 13H108.878C108.771 13 108.681 12.968 108.606 12.904C108.542 12.8293 108.51 12.7387 108.51 12.632V8.2C108.51 7.44267 108.323 6.856 107.95 6.44C107.587 6.024 107.059 5.816 106.366 5.816C105.694 5.816 105.155 6.02933 104.75 6.456C104.355 6.872 104.158 7.45333 104.158 8.2V12.632C104.158 12.7387 104.121 12.8293 104.046 12.904C103.982 12.968 103.897 13 103.79 13H102.99ZM113.562 16.04C113.477 16.04 113.402 16.008 113.338 15.944C113.274 15.88 113.242 15.8053 113.242 15.72C113.242 15.6453 113.269 15.5493 113.322 15.432L114.554 12.504L111.498 5.288C111.445 5.14933 111.418 5.05867 111.418 5.016C111.418 4.92 111.45 4.84 111.514 4.776C111.578 4.712 111.658 4.68 111.754 4.68H112.538C112.709 4.68 112.837 4.77067 112.922 4.952L115.354 10.776L117.85 4.952C117.935 4.77067 118.069 4.68 118.25 4.68H119.002C119.098 4.68 119.178 4.712 119.242 4.776C119.306 4.84 119.338 4.91467 119.338 5C119.338 5.032 119.311 5.128 119.258 5.288L114.714 15.768C114.629 15.9493 114.495 16.04 114.314 16.04H113.562Z" fill="#555555"/>
</svg>
