<svg width="68" height="15" viewBox="0 0 68 15" fill="none" xmlns="http://www.w3.org/2000/svg">
<path d="M7.89474 1.57895C6.21969 1.57895 4.61324 2.24436 3.4288 3.4288C2.24436 4.61324 1.57895 6.21969 1.57895 7.89474H3.94737C4.36613 7.89474 4.76774 8.06109 5.06385 8.3572C5.35996 8.65331 5.52632 9.05492 5.52632 9.47368V13.4211C5.52632 13.8398 5.35996 14.2414 5.06385 14.5375C4.76774 14.8336 4.36613 15 3.94737 15H1.57895C1.16018 15 0.758573 14.8336 0.462463 14.5375C0.166353 14.2414 0 13.8398 0 13.4211V7.89474C0 3.53447 3.53447 0 7.89474 0C12.255 0 15.7895 3.53447 15.7895 7.89474V13.4211C15.7895 13.8398 15.6231 14.2414 15.327 14.5375C15.0309 14.8336 14.6293 15 14.2105 15H11.8421C11.4233 15 11.0217 14.8336 10.7256 14.5375C10.4295 14.2414 10.2632 13.8398 10.2632 13.4211V9.47368C10.2632 9.05492 10.4295 8.65331 10.7256 8.3572C11.0217 8.06109 11.4233 7.89474 11.8421 7.89474H14.2105C14.2105 6.21969 13.5451 4.61324 12.3607 3.4288C11.1762 2.24436 9.56979 1.57895 7.89474 1.57895ZM1.57895 9.47368V13.4211H3.94737V9.47368H1.57895ZM11.8421 9.47368V13.4211H14.2105V9.47368H11.8421Z" fill="#555555"/>
<path d="M23.76 13C23.6533 13 23.5627 12.968 23.488 12.904C23.424 12.8293 23.392 12.7387 23.392 12.632V2.184C23.392 2.06667 23.424 1.976 23.488 1.912C23.5627 1.83733 23.6533 1.8 23.76 1.8H27.824C29.0293 1.8 29.9787 2.09333 30.672 2.68C31.3653 3.26667 31.712 4.11467 31.712 5.224C31.712 6.33333 31.3653 7.18133 30.672 7.768C29.9893 8.344 29.04 8.632 27.824 8.632H24.992V12.632C24.992 12.7387 24.9547 12.8293 24.88 12.904C24.8053 12.968 24.7147 13 24.608 13H23.76ZM27.744 7.288C28.5227 7.288 29.1093 7.112 29.504 6.76C29.9093 6.408 30.112 5.896 30.112 5.224C30.112 4.552 29.9147 4.04 29.52 3.688C29.1253 3.32533 28.5333 3.144 27.744 3.144H24.976V7.288H27.744ZM36.5536 13.16C35.5403 13.16 34.7563 12.8347 34.2016 12.184C33.647 11.5227 33.3696 10.648 33.3696 9.56V5.048C33.3696 4.94133 33.4016 4.856 33.4656 4.792C33.5403 4.71733 33.631 4.68 33.7376 4.68H34.5376C34.6443 4.68 34.7296 4.71733 34.7936 4.792C34.8683 4.856 34.9056 4.94133 34.9056 5.048V9.48C34.9056 11.0693 35.599 11.864 36.9856 11.864C37.6576 11.864 38.191 11.656 38.5856 11.24C38.9803 10.8133 39.1776 10.2267 39.1776 9.48V5.048C39.1776 4.94133 39.2096 4.856 39.2736 4.792C39.3483 4.71733 39.439 4.68 39.5456 4.68H40.3456C40.4523 4.68 40.5376 4.71733 40.6016 4.792C40.6656 4.856 40.6976 4.94133 40.6976 5.048V12.632C40.6976 12.7387 40.6656 12.8293 40.6016 12.904C40.5376 12.968 40.4523 13 40.3456 13H39.5936C39.487 13 39.3963 12.968 39.3216 12.904C39.2576 12.8293 39.2256 12.7387 39.2256 12.632V11.928C38.927 12.3333 38.5643 12.6427 38.1376 12.856C37.711 13.0587 37.183 13.16 36.5536 13.16ZM43.4426 13C43.336 13 43.2453 12.968 43.1706 12.904C43.1066 12.8293 43.0746 12.7387 43.0746 12.632V5.048C43.0746 4.94133 43.1066 4.856 43.1706 4.792C43.2453 4.71733 43.336 4.68 43.4426 4.68H44.1946C44.3013 4.68 44.3866 4.71733 44.4506 4.792C44.5253 4.856 44.5626 4.94133 44.5626 5.048V5.752C44.872 5.35733 45.2346 5.05333 45.6506 4.84C46.0773 4.62667 46.6053 4.52 47.2346 4.52C48.2586 4.52 49.0533 4.85067 49.6186 5.512C50.1946 6.16267 50.4826 7.032 50.4826 8.12V12.632C50.4826 12.7387 50.4453 12.8293 50.3706 12.904C50.3066 12.968 50.2213 13 50.1146 13H49.3146C49.208 13 49.1173 12.968 49.0426 12.904C48.9786 12.8293 48.9466 12.7387 48.9466 12.632V8.2C48.9466 7.44267 48.76 6.856 48.3866 6.44C48.024 6.024 47.496 5.816 46.8026 5.816C46.1306 5.816 45.5973 6.02933 45.2026 6.456C44.808 6.872 44.6106 7.45333 44.6106 8.2V12.632C44.6106 12.7387 44.5733 12.8293 44.4986 12.904C44.4346 12.968 44.3493 13 44.2426 13H43.4426ZM53.1618 13C53.0551 13 52.9644 12.968 52.8898 12.904C52.8258 12.8293 52.7938 12.7387 52.7938 12.632V2.008C52.7938 1.90133 52.8258 1.816 52.8898 1.752C52.9644 1.67733 53.0551 1.64 53.1618 1.64H53.9138C54.0204 1.64 54.1058 1.67733 54.1698 1.752C54.2444 1.816 54.2818 1.90133 54.2818 2.008V7.576L57.4338 4.952C57.4658 4.93067 57.5191 4.888 57.5938 4.824C57.6684 4.77067 57.7378 4.73333 57.8018 4.712C57.8764 4.69067 57.9671 4.68 58.0738 4.68H58.9218C59.0178 4.68 59.0978 4.712 59.1618 4.776C59.2258 4.84 59.2578 4.92 59.2578 5.016C59.2578 5.13333 59.1938 5.23467 59.0658 5.32L55.3698 8.392L59.4658 12.376C59.5938 12.4827 59.6578 12.5787 59.6578 12.664C59.6578 12.76 59.6258 12.84 59.5618 12.904C59.4978 12.968 59.4178 13 59.3218 13H58.4898C58.3298 13 58.2124 12.984 58.1378 12.952C58.0738 12.92 57.9778 12.8453 57.8498 12.728L54.2818 9.32V12.632C54.2818 12.7387 54.2444 12.8293 54.1698 12.904C54.1058 12.968 54.0204 13 53.9138 13H53.1618ZM63.7515 13.16C63.0048 13.16 62.3755 13.0427 61.8635 12.808C61.3622 12.5627 60.9835 12.2853 60.7275 11.976C60.4822 11.6667 60.3595 11.4107 60.3595 11.208C60.3595 11.1013 60.3968 11.0213 60.4715 10.968C60.5568 10.904 60.6422 10.872 60.7275 10.872H61.4475C61.5542 10.872 61.6502 10.9253 61.7355 11.032C61.9915 11.3307 62.2688 11.5653 62.5675 11.736C62.8662 11.9067 63.2662 11.992 63.7675 11.992C64.3222 11.992 64.7702 11.8853 65.1115 11.672C65.4635 11.448 65.6395 11.144 65.6395 10.76C65.6395 10.504 65.5648 10.296 65.4155 10.136C65.2768 9.96533 65.0315 9.82133 64.6795 9.704C64.3382 9.576 63.8262 9.43733 63.1435 9.288C62.2155 9.08533 61.5542 8.792 61.1595 8.408C60.7755 8.024 60.5835 7.528 60.5835 6.92C60.5835 6.51467 60.7008 6.13067 60.9355 5.768C61.1808 5.39467 61.5328 5.096 61.9915 4.872C62.4608 4.63733 63.0208 4.52 63.6715 4.52C64.3542 4.52 64.9355 4.632 65.4155 4.856C65.8955 5.08 66.2528 5.34667 66.4875 5.656C66.7328 5.95467 66.8555 6.20533 66.8555 6.408C66.8555 6.504 66.8182 6.584 66.7435 6.648C66.6795 6.712 66.5995 6.744 66.5035 6.744H65.8315C65.7035 6.744 65.5968 6.69067 65.5115 6.584C65.3408 6.38133 65.1915 6.22667 65.0635 6.12C64.9462 6.00267 64.7702 5.90133 64.5355 5.816C64.3115 5.73067 64.0235 5.688 63.6715 5.688C63.1595 5.688 62.7648 5.8 62.4875 6.024C62.2102 6.23733 62.0715 6.52 62.0715 6.872C62.0715 7.096 62.1302 7.288 62.2475 7.448C62.3648 7.59733 62.5888 7.736 62.9195 7.864C63.2608 7.992 63.7515 8.12533 64.3915 8.264C65.4048 8.47733 66.1195 8.78667 66.5355 9.192C66.9622 9.58667 67.1755 10.0933 67.1755 10.712C67.1755 11.1707 67.0422 11.5867 66.7755 11.96C66.5088 12.3333 66.1142 12.6267 65.5915 12.84C65.0795 13.0533 64.4662 13.16 63.7515 13.16Z" fill="#555555"/>
</svg>
