<svg width="133" height="15" viewBox="0 0 133 15" fill="none" xmlns="http://www.w3.org/2000/svg">
<path d="M7.5 15C3.35775 15 0 11.6423 0 7.5C0 3.35775 3.35775 0 7.5 0C11.6423 0 15 3.35775 15 7.5C15 11.6423 11.6423 15 7.5 15ZM5.7825 13.2502C5.04256 11.6807 4.6139 9.98266 4.52025 8.25H1.5465C1.69244 9.40417 2.17044 10.4911 2.92243 11.3788C3.67441 12.2664 4.66801 12.9166 5.7825 13.2502ZM6.0225 8.25C6.13575 10.0793 6.6585 11.7975 7.5 13.314C8.36424 11.7574 8.86908 10.0271 8.9775 8.25H6.0225ZM13.4535 8.25H10.4797C10.3861 9.98266 9.95744 11.6807 9.2175 13.2502C10.332 12.9166 11.3256 12.2664 12.0776 11.3788C12.8296 10.4911 13.3076 9.40417 13.4535 8.25ZM1.5465 6.75H4.52025C4.6139 5.01734 5.04256 3.31926 5.7825 1.74975C4.66801 2.08341 3.67441 2.73356 2.92243 3.62122C2.17044 4.50888 1.69244 5.59583 1.5465 6.75ZM6.02325 6.75H8.97675C8.86856 4.97295 8.36398 3.24265 7.5 1.686C6.63576 3.24259 6.13092 4.97289 6.0225 6.75H6.02325ZM9.2175 1.74975C9.95744 3.31926 10.3861 5.01734 10.4797 6.75H13.4535C13.3076 5.59583 12.8296 4.50888 12.0776 3.62122C11.3256 2.73356 10.332 2.08341 9.2175 1.74975Z" fill="#555555"/>
<path d="M22.76 13C22.6533 13 22.5627 12.968 22.488 12.904C22.424 12.8293 22.392 12.7387 22.392 12.632V2.184C22.392 2.06667 22.424 1.976 22.488 1.912C22.5627 1.83733 22.6533 1.8 22.76 1.8H26.392C28.0027 1.8 29.1653 2.16267 29.88 2.888C30.5947 3.60267 30.968 4.68533 31 6.136C31.0107 6.44533 31.016 6.86133 31.016 7.384C31.016 7.90667 31.0107 8.328 31 8.648C30.968 9.66133 30.7973 10.488 30.488 11.128C30.1893 11.7573 29.7147 12.2267 29.064 12.536C28.4133 12.8453 27.5493 13 26.472 13H22.76ZM26.392 11.64C27.128 11.64 27.7093 11.5387 28.136 11.336C28.5733 11.1333 28.888 10.8133 29.08 10.376C29.2827 9.928 29.3947 9.33067 29.416 8.584C29.4373 7.944 29.448 7.544 29.448 7.384C29.448 7.21333 29.4373 6.81867 29.416 6.2C29.3947 5.144 29.144 4.376 28.664 3.896C28.184 3.40533 27.4 3.16 26.312 3.16H23.96V11.64H26.392ZM36.6233 13.16C35.4499 13.16 34.5379 12.8293 33.8873 12.168C33.2473 11.5067 32.9059 10.6267 32.8633 9.528L32.8473 8.84L32.8633 8.152C32.9059 7.064 33.2526 6.18933 33.9033 5.528C34.5539 4.856 35.4606 4.52 36.6233 4.52C37.7859 4.52 38.6926 4.856 39.3433 5.528C39.9939 6.18933 40.3406 7.064 40.3833 8.152C40.3939 8.26933 40.3993 8.49867 40.3993 8.84C40.3993 9.18133 40.3939 9.41067 40.3833 9.528C40.3406 10.6267 39.9939 11.5067 39.3433 12.168C38.7033 12.8293 37.7966 13.16 36.6233 13.16ZM36.6233 11.928C37.2953 11.928 37.8233 11.7147 38.2073 11.288C38.6019 10.8613 38.8153 10.248 38.8473 9.448C38.8579 9.34133 38.8633 9.13867 38.8633 8.84C38.8633 8.54133 38.8579 8.33867 38.8473 8.232C38.8153 7.432 38.6019 6.81867 38.2073 6.392C37.8233 5.96533 37.2953 5.752 36.6233 5.752C35.9513 5.752 35.4179 5.96533 35.0233 6.392C34.6286 6.81867 34.4206 7.432 34.3993 8.232L34.3832 8.84L34.3993 9.448C34.4206 10.248 34.6286 10.8613 35.0233 11.288C35.4179 11.7147 35.9513 11.928 36.6233 11.928ZM42.7708 13C42.6641 13 42.5734 12.968 42.4988 12.904C42.4348 12.8293 42.4028 12.7387 42.4028 12.632V5.048C42.4028 4.94133 42.4348 4.856 42.4988 4.792C42.5734 4.71733 42.6641 4.68 42.7708 4.68H43.4908C43.5974 4.68 43.6828 4.71733 43.7468 4.792C43.8214 4.856 43.8588 4.94133 43.8588 5.048V5.608C44.4134 4.88267 45.1868 4.52 46.1788 4.52C47.3628 4.52 48.2001 5.01067 48.6908 5.992C48.9468 5.544 49.3094 5.18667 49.7788 4.92C50.2481 4.65333 50.7761 4.52 51.3628 4.52C52.2374 4.52 52.9521 4.81867 53.5068 5.416C54.0614 6.01333 54.3388 6.87733 54.3388 8.008V12.632C54.3388 12.7387 54.3014 12.8293 54.2268 12.904C54.1628 12.968 54.0774 13 53.9708 13H53.2188C53.1121 13 53.0214 12.968 52.9468 12.904C52.8828 12.8293 52.8508 12.7387 52.8508 12.632V8.152C52.8508 7.32 52.6748 6.72267 52.3228 6.36C51.9814 5.99733 51.5281 5.816 50.9628 5.816C50.4614 5.816 50.0294 6.00267 49.6667 6.376C49.3041 6.73867 49.1228 7.33067 49.1228 8.152V12.632C49.1228 12.7387 49.0854 12.8293 49.0108 12.904C48.9468 12.968 48.8614 13 48.7548 13H48.0028C47.8961 13 47.8054 12.968 47.7308 12.904C47.6668 12.8293 47.6348 12.7387 47.6348 12.632V8.152C47.6348 7.32 47.4534 6.72267 47.0908 6.36C46.7388 5.99733 46.2908 5.816 45.7468 5.816C45.2454 5.816 44.8134 6.00267 44.4508 6.376C44.0881 6.73867 43.9068 7.32533 43.9068 8.136V12.632C43.9068 12.7387 43.8694 12.8293 43.7948 12.904C43.7308 12.968 43.6454 13 43.5388 13H42.7708ZM58.9415 13.16C58.4188 13.16 57.9335 13.0533 57.4855 12.84C57.0375 12.6267 56.6802 12.3387 56.4135 11.976C56.1575 11.6027 56.0295 11.192 56.0295 10.744C56.0295 10.04 56.3175 9.464 56.8935 9.016C57.4802 8.55733 58.2695 8.25867 59.2615 8.12L61.6455 7.784V7.32C61.6455 6.232 61.0215 5.688 59.7735 5.688C59.3042 5.688 58.9202 5.78933 58.6215 5.992C58.3228 6.184 58.0988 6.41333 57.9495 6.68C57.9175 6.776 57.8748 6.84533 57.8215 6.888C57.7788 6.93067 57.7148 6.952 57.6295 6.952H56.9415C56.8455 6.952 56.7602 6.92 56.6855 6.856C56.6215 6.78133 56.5895 6.696 56.5895 6.6C56.6002 6.344 56.7175 6.056 56.9415 5.736C57.1762 5.40533 57.5335 5.12267 58.0135 4.888C58.4935 4.64267 59.0855 4.52 59.7895 4.52C60.9842 4.52 61.8428 4.80267 62.3655 5.368C62.8882 5.92267 63.1495 6.616 63.1495 7.448V12.632C63.1495 12.7387 63.1122 12.8293 63.0375 12.904C62.9735 12.968 62.8882 13 62.7815 13H62.0455C61.9388 13 61.8482 12.968 61.7735 12.904C61.7095 12.8293 61.6775 12.7387 61.6775 12.632V11.944C61.4428 12.2853 61.1015 12.5733 60.6535 12.808C60.2055 13.0427 59.6348 13.16 58.9415 13.16ZM59.2775 11.96C59.9708 11.96 60.5362 11.736 60.9735 11.288C61.4215 10.8293 61.6455 10.1733 61.6455 9.32V8.872L59.7895 9.144C59.0322 9.25067 58.4615 9.432 58.0775 9.688C57.6935 9.93333 57.5015 10.248 57.5015 10.632C57.5015 11.0587 57.6775 11.3893 58.0295 11.624C58.3815 11.848 58.7975 11.96 59.2775 11.96ZM65.6896 3.128C65.583 3.128 65.4923 3.096 65.4176 3.032C65.3536 2.95733 65.3216 2.86667 65.3216 2.76V1.896C65.3216 1.78933 65.3536 1.69867 65.4176 1.624C65.4923 1.54933 65.583 1.512 65.6896 1.512H66.6976C66.8043 1.512 66.895 1.54933 66.9696 1.624C67.0443 1.69867 67.0816 1.78933 67.0816 1.896V2.76C67.0816 2.86667 67.0443 2.95733 66.9696 3.032C66.895 3.096 66.8043 3.128 66.6976 3.128H65.6896ZM65.8176 13C65.711 13 65.6203 12.968 65.5456 12.904C65.4816 12.8293 65.4496 12.7387 65.4496 12.632V5.048C65.4496 4.94133 65.4816 4.856 65.5456 4.792C65.6203 4.71733 65.711 4.68 65.8176 4.68H66.5856C66.6923 4.68 66.7776 4.71733 66.8416 4.792C66.9163 4.856 66.9536 4.94133 66.9536 5.048V12.632C66.9536 12.7387 66.9163 12.8293 66.8416 12.904C66.7776 12.968 66.6923 13 66.5856 13H65.8176ZM69.6926 13C69.586 13 69.4953 12.968 69.4206 12.904C69.3566 12.8293 69.3246 12.7387 69.3246 12.632V5.048C69.3246 4.94133 69.3566 4.856 69.4206 4.792C69.4953 4.71733 69.586 4.68 69.6926 4.68H70.4446C70.5513 4.68 70.6366 4.71733 70.7006 4.792C70.7753 4.856 70.8126 4.94133 70.8126 5.048V5.752C71.122 5.35733 71.4846 5.05333 71.9006 4.84C72.3273 4.62667 72.8553 4.52 73.4846 4.52C74.5086 4.52 75.3033 4.85067 75.8686 5.512C76.4446 6.16267 76.7326 7.032 76.7326 8.12V12.632C76.7326 12.7387 76.6953 12.8293 76.6206 12.904C76.5566 12.968 76.4713 13 76.3646 13H75.5646C75.458 13 75.3673 12.968 75.2926 12.904C75.2286 12.8293 75.1966 12.7387 75.1966 12.632V8.2C75.1966 7.44267 75.01 6.856 74.6366 6.44C74.274 6.024 73.746 5.816 73.0526 5.816C72.3806 5.816 71.8473 6.02933 71.4526 6.456C71.058 6.872 70.8606 7.45333 70.8606 8.2V12.632C70.8606 12.7387 70.8233 12.8293 70.7486 12.904C70.6846 12.968 70.5993 13 70.4926 13H69.6926ZM83.5256 13C83.419 13 83.3283 12.968 83.2536 12.904C83.1896 12.8293 83.1576 12.7387 83.1576 12.632V2.184C83.1576 2.06667 83.1896 1.976 83.2536 1.912C83.3283 1.83733 83.419 1.8 83.5256 1.8H84.2616C84.4536 1.8 84.587 1.87467 84.6616 2.024L89.9736 10.184V2.184C89.9736 2.06667 90.0056 1.976 90.0696 1.912C90.1443 1.83733 90.235 1.8 90.3416 1.8H91.1096C91.227 1.8 91.3176 1.83733 91.3816 1.912C91.4563 1.976 91.4936 2.06667 91.4936 2.184V12.616C91.4936 12.7227 91.4563 12.8133 91.3816 12.888C91.3176 12.9627 91.2323 13 91.1256 13H90.3576C90.1976 13 90.0696 12.9253 89.9736 12.776L84.6776 4.696V12.632C84.6776 12.7387 84.6403 12.8293 84.5656 12.904C84.491 12.968 84.4003 13 84.2936 13H83.5256ZM96.3946 13.16C95.872 13.16 95.3866 13.0533 94.9386 12.84C94.4906 12.6267 94.1333 12.3387 93.8666 11.976C93.6106 11.6027 93.4826 11.192 93.4826 10.744C93.4826 10.04 93.7706 9.464 94.3466 9.016C94.9333 8.55733 95.7226 8.25867 96.7146 8.12L99.0986 7.784V7.32C99.0986 6.232 98.4746 5.688 97.2266 5.688C96.7573 5.688 96.3733 5.78933 96.0746 5.992C95.776 6.184 95.552 6.41333 95.4026 6.68C95.3706 6.776 95.328 6.84533 95.2746 6.888C95.232 6.93067 95.168 6.952 95.0826 6.952H94.3946C94.2986 6.952 94.2133 6.92 94.1386 6.856C94.0746 6.78133 94.0426 6.696 94.0426 6.6C94.0533 6.344 94.1706 6.056 94.3946 5.736C94.6293 5.40533 94.9866 5.12267 95.4666 4.888C95.9466 4.64267 96.5386 4.52 97.2426 4.52C98.4373 4.52 99.296 4.80267 99.8186 5.368C100.341 5.92267 100.603 6.616 100.603 7.448V12.632C100.603 12.7387 100.565 12.8293 100.491 12.904C100.427 12.968 100.341 13 100.235 13H99.4986C99.392 13 99.3013 12.968 99.2266 12.904C99.1626 12.8293 99.1306 12.7387 99.1306 12.632V11.944C98.896 12.2853 98.5546 12.5733 98.1066 12.808C97.6586 13.0427 97.088 13.16 96.3946 13.16ZM96.7306 11.96C97.424 11.96 97.9893 11.736 98.4266 11.288C98.8746 10.8293 99.0986 10.1733 99.0986 9.32V8.872L97.2426 9.144C96.4853 9.25067 95.9146 9.432 95.5306 9.688C95.1466 9.93333 94.9546 10.248 94.9546 10.632C94.9546 11.0587 95.1306 11.3893 95.4826 11.624C95.8346 11.848 96.2506 11.96 96.7306 11.96ZM103.271 13C103.164 13 103.073 12.968 102.999 12.904C102.935 12.8293 102.903 12.7387 102.903 12.632V5.048C102.903 4.94133 102.935 4.856 102.999 4.792C103.073 4.71733 103.164 4.68 103.271 4.68H103.991C104.097 4.68 104.183 4.71733 104.247 4.792C104.321 4.856 104.359 4.94133 104.359 5.048V5.608C104.913 4.88267 105.687 4.52 106.679 4.52C107.863 4.52 108.7 5.01067 109.191 5.992C109.447 5.544 109.809 5.18667 110.279 4.92C110.748 4.65333 111.276 4.52 111.863 4.52C112.737 4.52 113.452 4.81867 114.007 5.416C114.561 6.01333 114.839 6.87733 114.839 8.008V12.632C114.839 12.7387 114.801 12.8293 114.727 12.904C114.663 12.968 114.577 13 114.471 13H113.719C113.612 13 113.521 12.968 113.447 12.904C113.383 12.8293 113.351 12.7387 113.351 12.632V8.152C113.351 7.32 113.175 6.72267 112.823 6.36C112.481 5.99733 112.028 5.816 111.463 5.816C110.961 5.816 110.529 6.00267 110.167 6.376C109.804 6.73867 109.623 7.33067 109.623 8.152V12.632C109.623 12.7387 109.585 12.8293 109.511 12.904C109.447 12.968 109.361 13 109.255 13H108.503C108.396 13 108.305 12.968 108.231 12.904C108.167 12.8293 108.135 12.7387 108.135 12.632V8.152C108.135 7.32 107.953 6.72267 107.591 6.36C107.239 5.99733 106.791 5.816 106.247 5.816C105.745 5.816 105.313 6.00267 104.951 6.376C104.588 6.73867 104.407 7.32533 104.407 8.136V12.632C104.407 12.7387 104.369 12.8293 104.295 12.904C104.231 12.968 104.145 13 104.039 13H103.271ZM120.45 13.16C119.351 13.16 118.471 12.824 117.81 12.152C117.159 11.4693 116.802 10.5413 116.738 9.368L116.722 8.824L116.738 8.296C116.812 7.144 117.175 6.22667 117.826 5.544C118.487 4.86133 119.356 4.52 120.434 4.52C121.618 4.52 122.535 4.89867 123.186 5.656C123.836 6.40267 124.161 7.416 124.161 8.696V8.968C124.161 9.07467 124.124 9.16533 124.05 9.24C123.986 9.304 123.9 9.336 123.794 9.336H118.258V9.48C118.29 10.1733 118.498 10.7653 118.882 11.256C119.276 11.736 119.794 11.976 120.434 11.976C120.924 11.976 121.324 11.88 121.634 11.688C121.954 11.4853 122.188 11.2773 122.338 11.064C122.434 10.936 122.503 10.8613 122.546 10.84C122.599 10.808 122.69 10.792 122.818 10.792H123.602C123.698 10.792 123.778 10.8187 123.842 10.872C123.906 10.9253 123.938 11 123.938 11.096C123.938 11.3307 123.788 11.6133 123.49 11.944C123.202 12.2747 122.791 12.5627 122.258 12.808C121.735 13.0427 121.132 13.16 120.45 13.16ZM122.642 8.232V8.184C122.642 7.448 122.439 6.85067 122.034 6.392C121.639 5.92267 121.106 5.688 120.434 5.688C119.762 5.688 119.228 5.92267 118.834 6.392C118.45 6.85067 118.258 7.448 118.258 8.184V8.232H122.642ZM128.955 13.16C128.208 13.16 127.579 13.0427 127.067 12.808C126.565 12.5627 126.187 12.2853 125.931 11.976C125.685 11.6667 125.563 11.4107 125.563 11.208C125.563 11.1013 125.6 11.0213 125.675 10.968C125.76 10.904 125.845 10.872 125.931 10.872H126.651C126.757 10.872 126.853 10.9253 126.939 11.032C127.195 11.3307 127.472 11.5653 127.771 11.736C128.069 11.9067 128.469 11.992 128.971 11.992C129.525 11.992 129.973 11.8853 130.315 11.672C130.667 11.448 130.843 11.144 130.843 10.76C130.843 10.504 130.768 10.296 130.619 10.136C130.48 9.96533 130.235 9.82133 129.883 9.704C129.541 9.576 129.029 9.43733 128.347 9.288C127.419 9.08533 126.757 8.792 126.363 8.408C125.979 8.024 125.787 7.528 125.787 6.92C125.787 6.51467 125.904 6.13067 126.139 5.768C126.384 5.39467 126.736 5.096 127.195 4.872C127.664 4.63733 128.224 4.52 128.875 4.52C129.557 4.52 130.139 4.632 130.619 4.856C131.099 5.08 131.456 5.34667 131.691 5.656C131.936 5.95467 132.059 6.20533 132.059 6.408C132.059 6.504 132.021 6.584 131.947 6.648C131.883 6.712 131.803 6.744 131.707 6.744H131.035C130.907 6.744 130.8 6.69067 130.715 6.584C130.544 6.38133 130.395 6.22667 130.267 6.12C130.149 6.00267 129.973 5.90133 129.739 5.816C129.515 5.73067 129.227 5.688 128.875 5.688C128.363 5.688 127.968 5.8 127.691 6.024C127.413 6.23733 127.275 6.52 127.275 6.872C127.275 7.096 127.333 7.288 127.451 7.448C127.568 7.59733 127.792 7.736 128.123 7.864C128.464 7.992 128.955 8.12533 129.595 8.264C130.608 8.47733 131.323 8.78667 131.739 9.192C132.165 9.58667 132.379 10.0933 132.379 10.712C132.379 11.1707 132.245 11.5867 131.979 11.96C131.712 12.3333 131.317 12.6267 130.795 12.84C130.283 13.0533 129.669 13.16 128.955 13.16Z" fill="#555555"/>
</svg>
